<?xml version="1.0" encoding="UTF-8"?>
<svg width="375px" height="266px" viewBox="0 0 375 266" version="1.1" xmlns="http://www.w3.org/2000/svg" xmlns:xlink="http://www.w3.org/1999/xlink">
    <title>undraw_typewriter_i8xd</title>
    <defs>
        <linearGradient x1="49.9209957%" y1="99.9923246%" x2="49.9209957%" y2="-0.00710744401%" id="linearGradient-1">
            <stop stop-color="#808080" stop-opacity="0.25" offset="0%"></stop>
            <stop stop-color="#808080" stop-opacity="0.12" offset="54%"></stop>
            <stop stop-color="#808080" stop-opacity="0.1" offset="100%"></stop>
        </linearGradient>
    </defs>
    <g id="playground-v5" stroke="none" stroke-width="1" fill="none" fill-rule="evenodd">
        <g id="main" transform="translate(-790.000000, -198.000000)">
            <g id="🔸Hero" transform="translate(329.000000, 198.000000)">
                <g id="undraw_typewriter_i8xd" transform="translate(461.000000, 0.000000)">
                    <g id="Group" opacity="0.2" transform="translate(19.000000, 125.000000)">
                        <path d="M74.235,107.913148 C74.4579302,108.338494 74.6460312,108.780792 74.7975,109.235803 C71.7975,110.354689 68.7975,111.527913 65.7975,112.755475 C65.73375,112.648033 65.67,112.53318 65.61,112.418328 C64.9549174,111.233118 64.6325329,109.896404 64.67625,108.546689 C64.755,106.809082 65.535,105.312295 66.92625,104.589836 C68.3175,103.867377 70.005,104.067443 71.50125,104.960328 C72.6616412,105.687408 73.6052009,106.70658 74.235,107.913148 L74.235,107.913148 Z" id="Path" fill="#3F3D56"></path>
                        <ellipse id="Oval" fill="#3F3D56" transform="translate(66.271085, 103.335956) rotate(-27.840000) translate(-66.271085, -103.335956) " cx="66.2710846" cy="103.335956" rx="4.86980433" ry="6.33369628"></ellipse>
                        <ellipse id="Oval" fill="#3F3D56" transform="translate(62.623828, 96.510003) rotate(-27.840000) translate(-62.623828, -96.510003) " cx="62.6238279" cy="96.5100035" rx="4.86980433" ry="6.33369628"></ellipse>
                        <ellipse id="Oval" fill="#3F3D56" transform="translate(58.974820, 89.684480) rotate(-27.840000) translate(-58.974820, -89.684480) " cx="58.9748199" cy="89.6844801" rx="4.86980433" ry="6.33369628"></ellipse>
                        <ellipse id="Oval" fill="#3F3D56" transform="translate(55.323813, 82.858528) rotate(-27.840000) translate(-55.323813, -82.858528) " cx="55.3238132" cy="82.8585278" rx="4.86980433" ry="6.33369628"></ellipse>
                        <path d="M14.19,44.5923934 C13.2048789,44.1623979 12.250215,43.6672866 11.3325,43.1104262 L21.69375,35.3300984 L9.4725,41.8248197 C4.35912847,37.9522792 1.08612906,32.1697645 0.42375,25.8380984 L21.39375,25.6861967 L0.31875,22.5925902 C0.649486956,13.9447979 5.84255908,6.20416684 13.7753563,2.53459321 C21.7081534,-1.13498042 31.051277,-0.118539955 37.9858298,5.16845595 C44.9203826,10.4554518 48.2842543,19.1269947 46.7025,27.6386885 C48.2395855,28.3132896 49.6981084,29.1505537 51.0525,30.1358033 L40.36875,45.3778361 L53.2875,31.9771475 C59.0217205,37.3525077 61.6248796,45.2227469 60.21,52.9062295 C71.3602938,57.8029972 76.8278405,70.3449511 72.7683888,81.7137994 C68.708937,93.0826477 56.4862835,99.4589593 44.6942188,96.359527 C32.902154,93.2600948 25.5022913,81.7261912 27.6975,69.8673443 C17.8373019,65.5313038 12.2596411,55.0932957 14.1975,44.6035082 L14.19,44.5923934 Z" id="Path" fill="#674B7C"></path>
                        <path d="M57.88125,37.9531803 C60.3383358,42.5326613 61.1588768,47.7974896 60.21,52.8951148 C71.3602938,57.7918824 76.8278405,70.3338364 72.7683888,81.7026847 C68.708937,93.071533 56.4862835,99.4478445 44.6942188,96.3484123 C32.902154,93.24898 25.5022913,81.7150764 27.6975,69.8562295 C23.06625,67.8259344 56.655,35.6598361 57.88125,37.9531803 Z" id="Path" fill="#000000" opacity="0.1"></path>
                    </g>
                    <g id="Group" opacity="0.2" transform="translate(250.000000, 26.000000)">
                        <path d="M6.87774194,158.70068 C6.65286138,159.329606 6.48160232,159.976521 6.36580645,160.634467 C10.6739785,161.60384 14.9833871,162.656266 19.2940323,163.791746 C19.3608065,163.631837 19.4275806,163.460771 19.4906452,163.289705 C20.1491159,161.524968 20.3270915,159.61632 20.0062903,157.759819 C19.5648387,155.379773 18.2182258,153.460862 16.1816129,152.720816 C14.145,151.980771 11.8932258,152.58322 10.0309677,154.119093 C8.59268321,155.338484 7.50430844,156.919876 6.87774194,158.70068 Z" id="Path" fill="#3F3D56"></path>
                        <ellipse id="Oval" fill="#3F3D56" transform="translate(16.844470, 150.877423) rotate(-70.040000) translate(-16.844470, -150.877423) " cx="16.8444701" cy="150.877423" rx="8.79992862" ry="6.70902683"></ellipse>
                        <ellipse id="Oval" fill="#3F3D56" transform="translate(20.105413, 140.466855) rotate(-70.114835) translate(-20.105413, -140.466855) " cx="20.1054129" cy="140.466855" rx="8.79642604" ry="6.70632883"></ellipse>
                        <ellipse id="Oval" fill="#3F3D56" transform="translate(24.172009, 130.650820) rotate(-70.040000) translate(-24.172009, -130.650820) " cx="24.1720094" cy="130.65082" rx="8.79992862" ry="6.70902683"></ellipse>
                        <ellipse id="Oval" fill="#3F3D56" transform="translate(27.834401, 120.539789) rotate(-70.040000) translate(-27.834401, -120.539789) " cx="27.8344012" cy="120.539789" rx="8.79992862" ry="6.70902683"></ellipse>
                        <path d="M76.5158065,59.9362358 C77.7765081,59.1533876 78.9813523,58.2835627 80.1216129,57.3330612 L64.5409677,48.5752381 L82.4104839,55.2319274 C88.6320768,48.9215511 91.9865279,40.321061 91.6846774,31.4537868 L63.1201613,35.2023583 L91.206129,26.9391383 C89.1023204,15.0677701 80.5612656,5.3681125 69.0717161,1.80216984 C57.5821667,-1.76377282 45.0680305,1.40111124 36.6409378,10.0040666 C28.2138451,18.607022 25.2848998,31.2074968 29.0504839,42.6585941 C27.0894464,43.8811489 25.2649657,45.3111676 23.6083871,46.9240816 L41.043871,65.953288 L20.9114516,49.884263 C14.1331668,58.3891558 12.096046,69.749619 15.4953226,80.0885261 C1.26551498,88.9574157 -3.77624695,107.299697 3.91366093,122.223419 C11.6035688,137.147141 29.4429315,143.641026 44.8932759,137.140819 C60.3436204,130.640612 68.2168335,113.329036 62.9791935,97.3736054 C75.5743811,89.5255756 81.1780323,74.0575785 76.5417742,59.9362358 L76.5158065,59.9362358 Z" id="Path" fill="#674B7C"></path>
                        <path d="M15.7995161,59.0139683 C13.3289343,65.8023894 13.2165223,73.2280784 15.4804839,80.0885261 C1.25067627,88.9574157 -3.79108566,107.299697 3.89882222,122.223419 C11.5887301,137.147141 29.4280928,143.641026 44.8784372,137.140819 C60.3287817,130.640612 68.2019948,113.329036 62.9643548,97.3736054 C68.8664516,93.7068481 17.031129,55.6186848 15.7995161,59.0139683 Z" id="Path" fill="#000000" opacity="0.1"></path>
                    </g>
                    <ellipse id="Oval" fill="#674B7C" cx="67" cy="238" rx="25" ry="5"></ellipse>
                    <ellipse id="Oval" fill="#3F3D56" cx="67" cy="235.5" rx="3" ry="3.5"></ellipse>
                    <ellipse id="Oval" fill="#3F3D56" cx="67" cy="231.5" rx="3" ry="3.5"></ellipse>
                    <ellipse id="Oval" fill="#3F3D56" cx="67" cy="226.5" rx="3" ry="3.5"></ellipse>
                    <ellipse id="Oval" fill="#3F3D56" cx="67" cy="222.5" rx="3" ry="3.5"></ellipse>
                    <ellipse id="Oval" fill="#3F3D56" cx="67" cy="216.5" rx="3" ry="3.5"></ellipse>
                    <ellipse id="Oval" fill="#3F3D56" cx="67" cy="212.5" rx="3" ry="3.5"></ellipse>
                    <ellipse id="Oval" fill="#3F3D56" cx="67" cy="208.5" rx="3" ry="3.5"></ellipse>
                    <path d="M78.8988186,176.438934 C79.3120022,175.935597 79.6875476,175.405029 80.0226604,174.851178 L72.0746654,173.603127 L80.6714764,173.665899 C82.3405356,170.197943 82.4411199,166.225649 80.9495403,162.684533 L69.4137477,168.404149 L80.0535564,160.930617 C77.3393113,156.435955 72.2263149,153.76755 66.8041945,154.015951 C61.382074,154.264351 56.5593493,157.387936 54.3070168,162.110128 C52.0546842,166.832321 52.7501402,172.36188 56.1091593,176.438934 C55.4633104,177.221268 54.9078169,178.068069 54.4523615,178.964574 L64.7754862,184.093396 L53.7687876,180.559715 C52.1988147,184.997755 53.0791431,189.893675 56.1091593,193.575625 C51.4360363,199.256824 52.1144898,207.417884 57.6675977,212.32195 C63.2207057,217.226017 71.7834102,217.226017 77.3365181,212.32195 C82.8896261,207.417884 83.5680796,199.256824 78.8949566,193.575625 C83.0303988,188.547597 83.0303988,181.466962 78.8949566,176.438934 L78.8988186,176.438934 Z" id="Path" fill="#674B7C"></path>
                    <path d="M53.0118165,185.199366 C53.0019349,188.287938 54.0911031,191.289083 56.102629,193.715934 C51.4276715,199.361586 52.1063913,207.471583 57.6616792,212.344964 C63.2169671,217.218345 71.7830329,217.218345 77.3383208,212.344964 C82.8936087,207.471583 83.5723285,199.361586 78.897371,193.715934 C80.8561734,191.374887 53.0118165,183.669246 53.0118165,185.199366 Z" id="Path" fill="#000000" opacity="0.1"></path>
                    <rect id="Rectangle" fill="#35323E" x="100" y="65" width="179" height="39" rx="7.42"></rect>
                    <path d="M113.973163,19 C113.973163,19 116.526012,87.9310494 112,96 L265,96 C265,96 258.500826,42.9781025 265,19 L113.973163,19 Z" id="Path" fill="#FFFFFF"></path>
                    <path d="M113.973163,19 C113.973163,19 116.526012,87.9310494 112,96 L265,96 C265,96 258.500826,42.9781025 265,19 L113.973163,19 Z" id="Path" fill="#000000" opacity="0.03"></path>
                    <rect id="Rectangle" fill="#35323E" x="130" y="94" width="112" height="14"></rect>
                    <path d="M292.022429,258 L84.0864857,258 C80.9327032,258 77.9280773,256.658938 75.8249024,254.311671 C73.7217275,251.964404 72.7191308,248.833503 73.0681409,245.702878 L77.3208354,207.426603 C77.6008788,204.882029 77.802857,202.331268 77.92677,199.774318 L78.7260089,173.821154 C78.9094002,167.957249 79.3059218,162.108196 79.9155738,156.273994 C80.2327911,153.249219 80.6045302,150.230632 81.0307909,147.218233 L86.499072,109.168445 C87.9379904,99.3230679 96.3881822,92.0210607 106.349936,92.0148516 L114.654586,92.0148516 C118.868847,92.0295672 122.965124,93.4063688 126.330909,95.9393858 C134.93295,102.351562 159.371074,106.977834 188.180849,106.977834 C216.990623,106.977834 241.432465,102.351562 250.053093,95.9245342 C253.418877,93.3915172 257.515154,92.0147156 261.729416,92 L275.182651,92 C281.019766,92 286.014009,96.1865618 287.026256,101.928292 L294.368102,143.51276 C295.11158,147.740514 295.742298,151.985596 296.260254,156.248004 C297.122689,163.33469 297.664188,170.452317 297.884754,177.600885 L298.628232,201.716164 C298.783866,206.745155 299.219474,211.761606 299.933036,216.742266 L303.877187,244.332818 C304.373415,247.767721 303.351253,251.248522 301.076072,253.871546 C298.800891,256.49457 295.497103,258 292.022429,258 L292.022429,258 Z" id="Path" fill="#464353"></path>
                    <rect id="Rectangle" fill="#000000" opacity="0.1" x="89" y="161" width="199" height="85" rx="19.96"></rect>
                    <ellipse id="Oval" fill="#674B7C" cx="103" cy="172" rx="6" ry="5"></ellipse>
                    <ellipse id="Oval" fill="#000000" opacity="0.1" cx="103" cy="172" rx="6" ry="5"></ellipse>
                    <ellipse id="Oval" fill="#674B7C" cx="103" cy="170" rx="6" ry="5"></ellipse>
                    <ellipse id="Oval" fill="#35323E" cx="109" cy="187" rx="6" ry="5"></ellipse>
                    <ellipse id="Oval" fill="#000000" opacity="0.1" cx="109" cy="187" rx="6" ry="5"></ellipse>
                    <ellipse id="Oval" fill="#35323E" cx="109" cy="186" rx="6" ry="5"></ellipse>
                    <ellipse id="Oval" fill="#35323E" cx="113" cy="204" rx="6" ry="5"></ellipse>
                    <ellipse id="Oval" fill="#000000" opacity="0.1" cx="113" cy="204" rx="6" ry="5"></ellipse>
                    <ellipse id="Oval" fill="#35323E" cx="113" cy="203" rx="6" ry="5"></ellipse>
                    <ellipse id="Oval" fill="#35323E" cx="99" cy="206" rx="6" ry="5"></ellipse>
                    <ellipse id="Oval" fill="#000000" opacity="0.1" cx="99" cy="206" rx="6" ry="5"></ellipse>
                    <ellipse id="Oval" fill="#35323E" cx="99" cy="205" rx="6" ry="5"></ellipse>
                    <ellipse id="Oval" fill="#35323E" cx="120" cy="221" rx="6" ry="5"></ellipse>
                    <ellipse id="Oval" fill="#000000" opacity="0.1" cx="120" cy="221" rx="6" ry="5"></ellipse>
                    <ellipse id="Oval" fill="#35323E" cx="120" cy="219" rx="6" ry="5"></ellipse>
                    <ellipse id="Oval" fill="#35323E" cx="100" cy="221" rx="6" ry="5"></ellipse>
                    <ellipse id="Oval" fill="#000000" opacity="0.1" cx="100" cy="221" rx="6" ry="5"></ellipse>
                    <ellipse id="Oval" fill="#35323E" cx="100" cy="220" rx="6" ry="5"></ellipse>
                    <ellipse id="Oval" fill="#35323E" cx="136" cy="221" rx="6" ry="5"></ellipse>
                    <ellipse id="Oval" fill="#000000" opacity="0.1" cx="136" cy="221" rx="6" ry="5"></ellipse>
                    <ellipse id="Oval" fill="#35323E" cx="136" cy="219" rx="6" ry="5"></ellipse>
                    <ellipse id="Oval" fill="#35323E" cx="152" cy="221" rx="6" ry="5"></ellipse>
                    <ellipse id="Oval" fill="#000000" opacity="0.1" cx="152" cy="221" rx="6" ry="5"></ellipse>
                    <ellipse id="Oval" fill="#35323E" cx="152" cy="219" rx="6" ry="5"></ellipse>
                    <ellipse id="Oval" fill="#35323E" cx="167" cy="221" rx="6" ry="5"></ellipse>
                    <ellipse id="Oval" fill="#000000" opacity="0.1" cx="167" cy="221" rx="6" ry="5"></ellipse>
                    <ellipse id="Oval" fill="#35323E" cx="167" cy="219" rx="6" ry="5"></ellipse>
                    <ellipse id="Oval" fill="#35323E" cx="185" cy="221" rx="6" ry="5"></ellipse>
                    <ellipse id="Oval" fill="#000000" opacity="0.1" cx="185" cy="221" rx="6" ry="5"></ellipse>
                    <ellipse id="Oval" fill="#35323E" cx="185" cy="219" rx="6" ry="5"></ellipse>
                    <ellipse id="Oval" fill="#35323E" cx="199" cy="221" rx="6" ry="5"></ellipse>
                    <ellipse id="Oval" fill="#000000" opacity="0.1" cx="199" cy="221" rx="6" ry="5"></ellipse>
                    <ellipse id="Oval" fill="#35323E" cx="199" cy="219" rx="6" ry="5"></ellipse>
                    <ellipse id="Oval" fill="#35323E" cx="215" cy="221" rx="6" ry="5"></ellipse>
                    <ellipse id="Oval" fill="#000000" opacity="0.1" cx="215" cy="221" rx="6" ry="5"></ellipse>
                    <ellipse id="Oval" fill="#35323E" cx="215" cy="219" rx="6" ry="5"></ellipse>
                    <ellipse id="Oval" fill="#35323E" cx="231" cy="221" rx="6" ry="5"></ellipse>
                    <ellipse id="Oval" fill="#000000" opacity="0.1" cx="231" cy="221" rx="6" ry="5"></ellipse>
                    <ellipse id="Oval" fill="#35323E" cx="231" cy="219" rx="6" ry="5"></ellipse>
                    <ellipse id="Oval" fill="#35323E" cx="247" cy="221" rx="6" ry="5"></ellipse>
                    <ellipse id="Oval" fill="#000000" opacity="0.1" cx="247" cy="221" rx="6" ry="5"></ellipse>
                    <ellipse id="Oval" fill="#35323E" cx="247" cy="219" rx="6" ry="5"></ellipse>
                    <ellipse id="Oval" fill="#35323E" cx="264" cy="221" rx="6" ry="5"></ellipse>
                    <ellipse id="Oval" fill="#000000" opacity="0.1" cx="264" cy="221" rx="6" ry="5"></ellipse>
                    <ellipse id="Oval" fill="#35323E" cx="264" cy="219" rx="6" ry="5"></ellipse>
                    <ellipse id="Oval" fill="#35323E" cx="281" cy="221" rx="6" ry="5"></ellipse>
                    <ellipse id="Oval" fill="#000000" opacity="0.1" cx="281" cy="221" rx="6" ry="5"></ellipse>
                    <ellipse id="Oval" fill="#35323E" cx="281" cy="219" rx="6" ry="5"></ellipse>
                    <ellipse id="Oval" fill="#35323E" cx="128" cy="204" rx="6" ry="5"></ellipse>
                    <ellipse id="Oval" fill="#000000" opacity="0.1" cx="128" cy="204" rx="6" ry="5"></ellipse>
                    <ellipse id="Oval" fill="#35323E" cx="128" cy="203" rx="6" ry="5"></ellipse>
                    <ellipse id="Oval" fill="#35323E" cx="144" cy="204" rx="6" ry="5"></ellipse>
                    <ellipse id="Oval" fill="#000000" opacity="0.1" cx="144" cy="204" rx="6" ry="5"></ellipse>
                    <ellipse id="Oval" fill="#35323E" cx="144" cy="203" rx="6" ry="5"></ellipse>
                    <ellipse id="Oval" fill="#35323E" cx="160" cy="204" rx="6" ry="5"></ellipse>
                    <ellipse id="Oval" fill="#000000" opacity="0.1" cx="160" cy="204" rx="6" ry="5"></ellipse>
                    <ellipse id="Oval" fill="#35323E" cx="160" cy="203" rx="6" ry="5"></ellipse>
                    <ellipse id="Oval" fill="#35323E" cx="176" cy="204" rx="6" ry="5"></ellipse>
                    <ellipse id="Oval" fill="#000000" opacity="0.1" cx="176" cy="204" rx="6" ry="5"></ellipse>
                    <ellipse id="Oval" fill="#35323E" cx="176" cy="203" rx="6" ry="5"></ellipse>
                    <ellipse id="Oval" fill="#35323E" cx="192" cy="204" rx="6" ry="5"></ellipse>
                    <ellipse id="Oval" fill="#000000" opacity="0.1" cx="192" cy="204" rx="6" ry="5"></ellipse>
                    <ellipse id="Oval" fill="#35323E" cx="192" cy="203" rx="6" ry="5"></ellipse>
                    <ellipse id="Oval" fill="#35323E" cx="207" cy="204" rx="6" ry="5"></ellipse>
                    <ellipse id="Oval" fill="#000000" opacity="0.1" cx="207" cy="204" rx="6" ry="5"></ellipse>
                    <ellipse id="Oval" fill="#35323E" cx="207" cy="203" rx="6" ry="5"></ellipse>
                    <ellipse id="Oval" fill="#35323E" cx="223" cy="204" rx="6" ry="5"></ellipse>
                    <ellipse id="Oval" fill="#000000" opacity="0.1" cx="223" cy="204" rx="6" ry="5"></ellipse>
                    <ellipse id="Oval" fill="#35323E" cx="223" cy="203" rx="6" ry="5"></ellipse>
                    <ellipse id="Oval" fill="#35323E" cx="239" cy="204" rx="6" ry="5"></ellipse>
                    <ellipse id="Oval" fill="#000000" opacity="0.1" cx="239" cy="204" rx="6" ry="5"></ellipse>
                    <ellipse id="Oval" fill="#35323E" cx="239" cy="203" rx="6" ry="5"></ellipse>
                    <ellipse id="Oval" fill="#35323E" cx="255" cy="204" rx="6" ry="5"></ellipse>
                    <ellipse id="Oval" fill="#000000" opacity="0.1" cx="255" cy="204" rx="6" ry="5"></ellipse>
                    <ellipse id="Oval" fill="#35323E" cx="255" cy="203" rx="6" ry="5"></ellipse>
                    <ellipse id="Oval" fill="#35323E" cx="271" cy="204" rx="6" ry="5"></ellipse>
                    <ellipse id="Oval" fill="#000000" opacity="0.1" cx="271" cy="204" rx="6" ry="5"></ellipse>
                    <ellipse id="Oval" fill="#35323E" cx="271" cy="203" rx="6" ry="5"></ellipse>
                    <ellipse id="Oval" fill="#35323E" cx="124" cy="187" rx="6" ry="5"></ellipse>
                    <ellipse id="Oval" fill="#000000" opacity="0.1" cx="124" cy="187" rx="6" ry="5"></ellipse>
                    <ellipse id="Oval" fill="#35323E" cx="124" cy="186" rx="6" ry="5"></ellipse>
                    <ellipse id="Oval" fill="#35323E" cx="141" cy="187" rx="6" ry="5"></ellipse>
                    <ellipse id="Oval" fill="#000000" opacity="0.1" cx="141" cy="187" rx="6" ry="5"></ellipse>
                    <ellipse id="Oval" fill="#35323E" cx="141" cy="186" rx="6" ry="5"></ellipse>
                    <ellipse id="Oval" fill="#35323E" cx="156" cy="187" rx="6" ry="5"></ellipse>
                    <ellipse id="Oval" fill="#000000" opacity="0.1" cx="156" cy="187" rx="6" ry="5"></ellipse>
                    <ellipse id="Oval" fill="#35323E" cx="156" cy="186" rx="6" ry="5"></ellipse>
                    <ellipse id="Oval" fill="#35323E" cx="172" cy="187" rx="6" ry="5"></ellipse>
                    <ellipse id="Oval" fill="#000000" opacity="0.1" cx="172" cy="187" rx="6" ry="5"></ellipse>
                    <ellipse id="Oval" fill="#35323E" cx="172" cy="186" rx="6" ry="5"></ellipse>
                    <ellipse id="Oval" fill="#35323E" cx="188" cy="187" rx="6" ry="5"></ellipse>
                    <ellipse id="Oval" fill="#000000" opacity="0.1" cx="188" cy="187" rx="6" ry="5"></ellipse>
                    <ellipse id="Oval" fill="#35323E" cx="188" cy="186" rx="6" ry="5"></ellipse>
                    <ellipse id="Oval" fill="#35323E" cx="202" cy="187" rx="6" ry="5"></ellipse>
                    <ellipse id="Oval" fill="#000000" opacity="0.1" cx="202" cy="187" rx="6" ry="5"></ellipse>
                    <ellipse id="Oval" fill="#35323E" cx="202" cy="186" rx="6" ry="5"></ellipse>
                    <ellipse id="Oval" fill="#35323E" cx="219" cy="187" rx="6" ry="5"></ellipse>
                    <ellipse id="Oval" fill="#000000" opacity="0.1" cx="219" cy="187" rx="6" ry="5"></ellipse>
                    <ellipse id="Oval" fill="#35323E" cx="219" cy="186" rx="6" ry="5"></ellipse>
                    <ellipse id="Oval" fill="#35323E" cx="234" cy="187" rx="6" ry="5"></ellipse>
                    <ellipse id="Oval" fill="#000000" opacity="0.1" cx="234" cy="187" rx="6" ry="5"></ellipse>
                    <ellipse id="Oval" fill="#35323E" cx="234" cy="186" rx="6" ry="5"></ellipse>
                    <ellipse id="Oval" fill="#35323E" cx="251" cy="187" rx="6" ry="5"></ellipse>
                    <ellipse id="Oval" fill="#000000" opacity="0.1" cx="251" cy="187" rx="6" ry="5"></ellipse>
                    <ellipse id="Oval" fill="#35323E" cx="251" cy="186" rx="6" ry="5"></ellipse>
                    <ellipse id="Oval" fill="#35323E" cx="267" cy="187" rx="6" ry="5"></ellipse>
                    <ellipse id="Oval" fill="#000000" opacity="0.1" cx="267" cy="187" rx="6" ry="5"></ellipse>
                    <ellipse id="Oval" fill="#35323E" cx="267" cy="186" rx="6" ry="5"></ellipse>
                    <ellipse id="Oval" fill="#35323E" cx="117" cy="172" rx="6" ry="5"></ellipse>
                    <ellipse id="Oval" fill="#000000" opacity="0.1" cx="117" cy="172" rx="6" ry="5"></ellipse>
                    <ellipse id="Oval" fill="#35323E" cx="117" cy="170" rx="6" ry="5"></ellipse>
                    <ellipse id="Oval" fill="#35323E" cx="134" cy="172" rx="6" ry="5"></ellipse>
                    <ellipse id="Oval" fill="#000000" opacity="0.1" cx="134" cy="172" rx="6" ry="5"></ellipse>
                    <ellipse id="Oval" fill="#35323E" cx="134" cy="170" rx="6" ry="5"></ellipse>
                    <ellipse id="Oval" fill="#35323E" cx="148" cy="172" rx="6" ry="5"></ellipse>
                    <ellipse id="Oval" fill="#000000" opacity="0.1" cx="148" cy="172" rx="6" ry="5"></ellipse>
                    <ellipse id="Oval" fill="#35323E" cx="148" cy="170" rx="6" ry="5"></ellipse>
                    <ellipse id="Oval" fill="#35323E" cx="163" cy="172" rx="6" ry="5"></ellipse>
                    <ellipse id="Oval" fill="#000000" opacity="0.1" cx="163" cy="172" rx="6" ry="5"></ellipse>
                    <ellipse id="Oval" fill="#35323E" cx="163" cy="170" rx="6" ry="5"></ellipse>
                    <ellipse id="Oval" fill="#35323E" cx="179" cy="172" rx="6" ry="5"></ellipse>
                    <ellipse id="Oval" fill="#000000" opacity="0.1" cx="179" cy="172" rx="6" ry="5"></ellipse>
                    <ellipse id="Oval" fill="#35323E" cx="179" cy="170" rx="6" ry="5"></ellipse>
                    <ellipse id="Oval" fill="#35323E" cx="196" cy="172" rx="6" ry="5"></ellipse>
                    <ellipse id="Oval" fill="#000000" opacity="0.1" cx="196" cy="172" rx="6" ry="5"></ellipse>
                    <ellipse id="Oval" fill="#35323E" cx="196" cy="170" rx="6" ry="5"></ellipse>
                    <ellipse id="Oval" fill="#35323E" cx="211" cy="172" rx="6" ry="5"></ellipse>
                    <ellipse id="Oval" fill="#000000" opacity="0.1" cx="211" cy="172" rx="6" ry="5"></ellipse>
                    <ellipse id="Oval" fill="#35323E" cx="211" cy="170" rx="6" ry="5"></ellipse>
                    <ellipse id="Oval" fill="#35323E" cx="226" cy="172" rx="6" ry="5"></ellipse>
                    <ellipse id="Oval" fill="#000000" opacity="0.1" cx="226" cy="172" rx="6" ry="5"></ellipse>
                    <ellipse id="Oval" fill="#35323E" cx="226" cy="170" rx="6" ry="5"></ellipse>
                    <ellipse id="Oval" fill="#35323E" cx="241" cy="172" rx="6" ry="5"></ellipse>
                    <ellipse id="Oval" fill="#000000" opacity="0.1" cx="241" cy="172" rx="6" ry="5"></ellipse>
                    <ellipse id="Oval" fill="#35323E" cx="241" cy="170" rx="6" ry="5"></ellipse>
                    <ellipse id="Oval" fill="#35323E" cx="258" cy="172" rx="6" ry="5"></ellipse>
                    <ellipse id="Oval" fill="#000000" opacity="0.1" cx="258" cy="172" rx="6" ry="5"></ellipse>
                    <ellipse id="Oval" fill="#35323E" cx="258" cy="170" rx="6" ry="5"></ellipse>
                    <ellipse id="Oval" fill="#674B7C" cx="273" cy="172" rx="6" ry="5"></ellipse>
                    <ellipse id="Oval" fill="#000000" opacity="0.1" cx="273" cy="172" rx="6" ry="5"></ellipse>
                    <ellipse id="Oval" fill="#674B7C" cx="273" cy="170" rx="6" ry="5"></ellipse>
                    <rect id="Rectangle" fill="#35323E" x="103" y="231" width="173" height="10" rx="5"></rect>
                    <rect id="Rectangle" fill="#000000" opacity="0.1" x="103" y="231" width="173" height="10" rx="5"></rect>
                    <rect id="Rectangle" fill="#35323E" x="103" y="231" width="173" height="10" rx="5"></rect>
                    <path d="M253,123.412971 C253,133.354393 221.705036,144 186.421424,144 C151.137812,144 125,132.529707 125,122.588285 C125,112.646862 151.145302,108 186.421424,108 C221.697545,108 253,113.471548 253,123.412971 Z" id="Path" fill="#000000" opacity="0.1"></path>
                    <ellipse id="Oval" fill="#464353" cx="283.5" cy="84.5" rx="3.5" ry="9.5"></ellipse>
                    <ellipse id="Oval" fill="#464353" cx="96.5" cy="84.5" rx="3.5" ry="9.5"></ellipse>
                    <rect id="Rectangle" fill="#000000" opacity="0.1" x="98" y="81" width="185" height="3"></rect>
                    <rect id="Rectangle" fill="#464353" x="98" y="81" width="185" height="3"></rect>
                    <path d="M193.563158,86.0156514 C191.956579,85.5896831 189,94 189,94 L198,94 C198,94 195.169737,86.4416196 193.563158,86.0156514 Z M193.436842,87.0788602 C193.786844,87.0774884 194.103272,87.2584402 194.238321,87.5372 C194.373369,87.8159598 194.300386,88.1375125 194.053462,88.3516589 C193.806538,88.5658053 193.434404,88.6302823 193.110888,88.5149724 C192.787371,88.3996624 192.576316,88.1273226 192.576316,87.8251644 C192.576316,87.6272343 192.667394,87.4374109 192.829514,87.2974532 C192.991635,87.1574955 193.211517,87.0788602 193.440789,87.0788602 L193.436842,87.0788602 Z M193.539474,89.4847367 C194.593421,89.7062402 196.460526,93.6796719 196.460526,93.6796719 L190.539474,93.6796719 C190.539474,93.6796719 192.489474,89.2598255 193.563158,89.4847367 L193.539474,89.4847367 Z" id="Shape" fill="#464353" fill-rule="nonzero"></path>
                    <path d="M297,156 L80,156 C80.3181672,152.987423 80.6910195,149.98101 81.1185567,146.980759 L86.6032131,109.084417 C88.0464404,99.278744 96.521937,92.0061841 106.513522,92 L114.843041,92 C119.069922,92.0146563 123.178466,93.3859055 126.55433,95.9087075 C135.182131,102.295025 159.693436,106.902641 188.589485,106.902641 C217.485533,106.902641 242.008024,102.309817 250.654467,95.9087075 C254.030331,93.3859055 258.138875,92.0146563 262.365756,92 L275.859278,92 C281.713873,92 286.723071,96.1696784 287.738351,101.888253 L295.102182,143.305021 C295.847887,147.530518 296.480493,151.762177 297,156 Z" id="Path" fill="#FFFFFF" opacity="0.03"></path>
                    <g id="f7c3d2ec-a0cd-4215-8d90-993b7331bb50" transform="translate(158.000000, 169.000000)">
                        <path d="M24.0339726,33.8124904 C24.0339726,33.8124904 19.9487671,26.0078927 20.639726,24.7517241 C21.1344621,23.7608547 21.5341221,22.7213822 21.8328767,21.6484674 C21.8328767,21.6484674 23.3430137,20.5706897 23.3430137,20.1247126 C23.3430137,19.6787356 24.5361644,18.6678544 25.1665753,18.2255939 C25.7969863,17.7833333 25.48,15.6909579 25.1665753,15.4382375 C24.8507347,15.0952869 24.5778709,14.7119062 24.3545205,14.2972797 C24.3545205,14.2972797 24.7890411,13.0299617 24.3545205,12.6508812 C23.92,12.2718008 24.4186301,11.9075862 24.3545205,11.5099234 C24.3234482,10.9194486 24.3234482,10.3276395 24.3545205,9.73716475 C23.9833481,9.13618056 23.4105081,8.70145883 22.7482192,8.51816092 L22.7019178,8.31747126 L22.4312329,7.13563218 C22.4312329,7.13563218 23.7347945,4.53409962 21.6191781,3.15157088 C21.4679716,3.05442778 21.3109353,2.96753075 21.1490411,2.89141762 C21.1490411,2.89141762 21.1490411,2.82823755 21.1490411,2.72045977 C21.1046945,2.04424826 21.000972,1.37370993 20.8391781,0.717279693 C20.7287671,0.345632184 20.5863014,0.104061303 20.3975342,0.159808429 C20.3535889,0.173396376 20.3133253,0.197586227 20.28,0.230421456 C20.1934807,0.312328636 20.1179992,0.406093903 20.0556164,0.509157088 L20.0556164,0.509157088 L20.0556164,0.509157088 C19.8149516,0.960778256 19.6465283,1.45035366 19.5569863,1.95858238 C19.493483,2.25912898 19.4459221,2.56310323 19.4145205,2.86911877 L19.4145205,2.86911877 C19.3225108,3.05193104 19.2416203,3.24060549 19.1723288,3.43402299 C18.9158904,4.12900383 18.6131507,5.33685824 19.1723288,6.22881226 C19.6389041,6.97210728 20.2621918,8.02758621 20.7180822,8.78574713 L20.7180822,8.81176245 L20.7465753,8.85636015 L20.700274,8.88980843 L20.700274,9.00501916 L20.7394521,9.64425287 L21.0956164,15.1632184 C20.9906562,15.1311564 20.883492,15.1075494 20.7750685,15.0926054 C20.6196298,15.0668106 20.462287,15.0556163 20.3049315,15.0591571 C19.9986301,13.8029885 19.1545205,12.6285824 19.0049315,11.3166667 C18.987767,11.1861249 18.9794358,11.0544837 18.98,10.9227203 C18.98,10.0939464 19.190137,9.26517241 19.1723288,8.44011494 C19.18122,8.28788069 19.18122,8.13522276 19.1723288,7.98298851 L19.1723288,7.98298851 L19.1723288,7.85662835 C19.0123234,6.63719547 18.2841219,5.57951805 17.2276712,5.03210728 C16.8715068,4.84256705 16.4690411,4.7162069 16.1128767,4.50808429 C15.2936986,4.028659 14.770137,3.16272031 14.0257534,2.57180077 C13.4644565,2.10264498 12.724997,1.93484493 12.0276712,2.1183908 C11.6989185,2.17039759 11.3731358,2.2411161 11.0517808,2.33022989 L11.0517808,2.33022989 C10.2708724,2.54271377 9.52179843,2.86662439 8.82575342,3.29279693 C8.73315068,3.35226054 8.6369863,3.41172414 8.54794521,3.48233716 C8.35197272,3.61663698 8.19639643,3.80603304 8.09917808,4.028659 C8.03648898,4.21836325 8.01223269,4.41958375 8.02794521,4.61957854 C8.02794521,4.76452107 8.02794521,4.91318008 8.02794521,5.05440613 C7.98520548,7.47754789 5.48136986,9.36180077 5.27479452,11.7440613 C5.27479452,11.8035249 5.27479452,11.859272 5.27479452,11.9150192 L5.27479452,12.1751724 L5.27479452,12.1751724 L5.27479452,12.3647126 C5.31041096,13.4053257 5.82684932,14.3716092 5.9230137,15.4085057 C5.9230137,15.5014176 5.9230137,15.590613 5.9230137,15.6835249 C5.90700711,16.1591137 5.82050222,16.6292461 5.66657534,17.0772031 C5.35113696,17.1605457 5.04714327,17.2854311 4.76191781,17.4488506 C4.00328767,17.9580077 2.62493151,18.8425287 2.12630137,20.5298084 C1.99619619,20.9678067 1.93133042,21.4240577 1.9339726,21.8826054 C1.92564672,23.5027763 1.78384604,25.1192009 1.51013699,26.714023 C1.44561035,27.1160103 1.35638527,27.5132534 1.2430137,27.903295 C1.2349967,27.941243 1.2349967,27.9805577 1.2430137,28.0185057 L0.943835616,32.1066284 L0.886849315,32.8276245 L0.812054795,33.8533716 C0.812054795,33.8533716 0.833424658,33.9165517 0.865479452,34.020613 C0.897534247,34.1246743 0.94739726,34.3030651 0.986575342,34.4926054 C1.07037261,34.8402048 1.08371651,35.2022285 1.02575342,35.5555172 C0.991483722,35.6988008 0.917087513,35.8281847 0.812054795,35.9271648 L0.787123288,35.9568966 C0.654922112,36.2876972 0.577832233,36.6396271 0.559178082,36.9975096 C0.530684932,37.2130651 0.509315068,37.4472031 0.484383562,37.7073563 C0.338356164,39.3203065 0.245753425,41.7397318 0.192328767,43.7391954 C0.13890411,45.738659 0.12109589,47.2698467 0.12109589,47.2698467 C0.36564249,47.4341183 0.627330245,47.5687799 0.90109589,47.6712261 C0.878190699,47.7258582 0.857981589,47.7816784 0.840547945,47.8384674 C0.591593349,48.50615 0.432188324,49.2065065 0.366849315,49.9196935 C0.242191781,51.4062835 0.64109589,53.0675479 2.63561644,53.9223372 C2.76320387,53.9770192 2.89407565,54.0229534 3.02739726,54.0598467 C3.35247115,54.1850817 3.71299857,54.1621591 4.02109589,53.9966667 C4.02109589,54.0858621 4.02109589,54.171341 4.02109589,54.2605364 C4.04246575,54.6321839 4.06027397,54.9666667 4.06739726,55.2528352 C4.13150685,57.0255939 4.55178082,60.1288506 4.55178082,60.1288506 C4.55178082,60.1288506 4.69780822,61.3961686 4.56958904,61.7789655 C4.44136986,62.1617625 4.56958904,63.6780843 4.56958904,63.6780843 C4.56958904,63.6780843 5.01123288,64.4213793 4.56958904,64.8190421 C4.12794521,65.216705 4.00684932,67.1009579 4.13150685,67.3536782 C4.13066093,67.3635691 4.13066093,67.373519 4.13150685,67.38341 C4.22767123,68.0114943 3.68273973,77.3658621 3.68273973,77.3658621 C3.68273973,77.3658621 3.16986301,78.796705 2.76383562,80.283295 C2.35780822,81.7698851 2.05150685,83.2304598 2.43260274,83.5091954 C2.7917628,83.6954227 3.18280422,83.8053284 3.5830137,83.8325287 C3.5830137,83.8957088 3.5830137,83.9588889 3.5830137,84.022069 C3.57197227,84.5560903 3.48679415,85.0856205 3.33013699,85.5941379 C3.15561644,85.8505747 2.9739726,87.8500383 2.88493151,88.9389655 C2.88493151,88.9798467 2.88493151,89.020728 2.88493151,89.0578927 C2.6971215,89.5192808 2.54003632,89.9936378 2.41479452,90.4775862 C2.41479452,90.4775862 1.02575342,94.1085824 1.49589041,95.06 C1.53958081,95.1454875 1.59886621,95.2212376 1.67041096,95.2829885 L1.67041096,95.2829885 C1.68408006,95.299733 1.69962492,95.3147059 1.71671233,95.3275862 C2.38630137,95.8850575 4.06383562,96.0039847 4.67287671,96.03 L4.65150685,96.929387 L4.65150685,96.992567 L5.44575342,96.992567 L5.44575342,96.9702682 C5.44575342,96.8550575 5.46356164,96.334751 5.48849315,95.6360536 C5.48849315,95.51341 5.48849315,95.3833333 5.48849315,95.2644061 C5.48849315,95.1454789 5.48849315,95.052567 5.48849315,94.9447893 C5.72672787,94.2985676 5.84750966,93.6116911 5.84465753,92.9193103 C5.84499634,92.1255572 5.94802725,91.3354848 6.1509589,90.5704981 C6.24943423,90.176293 6.38421696,89.7929502 6.55342466,89.4258238 C6.68899596,88.6511706 6.65490342,87.8545537 6.45369863,87.0955939 C6.3910286,86.9038323 6.29437327,86.7260717 6.16876712,86.5715709 C6.17054416,86.5393881 6.17054416,86.5071253 6.16876712,86.4749425 L6.16876712,86.2668199 C6.1592795,85.6136653 6.2214185,84.9615215 6.3539726,84.3231034 C6.35195042,84.3133052 6.35195042,84.3031699 6.3539726,84.2933716 C6.3539726,84.2376245 6.37534247,84.1893103 6.38958904,84.1372797 L6.38958904,84.1038314 L6.6460274,84.1038314 C7.43315068,84.1298467 8.01369863,84.1298467 8.01369863,84.1298467 C8.01369863,84.1298467 8.64410959,80.7850192 8.58,79.2984291 C8.58,79.235249 8.58,79.1683525 8.58,79.1014559 C8.60690784,77.9532279 8.73447186,76.8099793 8.96109589,75.6860153 L9.46328767,70.5572797 C9.3255574,70.0595278 9.3255574,69.5312768 9.46328767,69.0335249 C9.62,68.6618774 9.94054795,67.9185824 10.1756164,67.4168582 C10.2789041,67.1827203 10.3643836,67.000613 10.4,66.922567 L10.4,66.8816858 C10.3209769,66.8514053 10.2456601,66.8114861 10.1756164,66.7627586 L10.1756164,66.7627586 C9.9690411,66.6178161 9.78739726,66.3390805 10.4,65.9302682 C11.3438356,65.294751 11.030411,63.7003831 11.030411,63.7003831 C10.8728917,63.3551052 10.8916131,62.9504447 11.080274,62.6226054 C11.4079452,62.1171648 11.080274,60.2143295 11.080274,60.2143295 C11.3500977,59.7128284 11.5662814,59.1819014 11.7249315,58.6311111 C11.96,57.8878161 12.5512329,54.171341 12.8290411,52.3762835 C12.9216438,51.7890805 12.9786301,51.41 12.9786301,51.41 L12.9786301,51.5029119 L12.9786301,51.6032567 L12.9786301,51.6032567 L13.0569863,52.4468966 L13.0569863,52.5583908 L13.1994521,54.1564751 C13.1994521,54.1564751 13.4915068,58.356092 13.309863,60.0024904 C13.3118852,60.0122887 13.3118852,60.0224239 13.309863,60.0322222 C13.296919,60.20265 13.2609465,60.370312 13.2030137,60.5302299 C12.8717808,61.3218391 12.9323288,64.4548276 12.950137,65.146092 C12.950137,65.2018391 12.950137,65.2501533 12.950137,65.287318 C12.8146202,65.6256547 12.7537578,65.9914615 12.7720548,66.3576628 L12.7720548,66.3576628 C12.7844501,66.4723181 12.8235821,66.5820572 12.8860274,66.6772797 C12.9743353,66.8248076 13.0143328,66.9982739 13,67.1715709 L13,67.1715709 C13,67.2421839 13,67.3165134 13,67.3908429 C12.9555744,67.6843281 12.8815562,67.972094 12.7791781,68.2493487 C12.7791781,68.2493487 12.4230137,69.174751 12.5690411,69.6578927 L12.5690411,69.6578927 C12.5865884,69.7201455 12.6156257,69.7782198 12.6545205,69.8288506 C12.6829727,69.8851104 12.6988049,69.9473797 12.7008219,70.0109579 L12.7008219,70.0109579 C12.8183562,71.0329885 12.5156164,75.5410728 12.3446575,78.0050958 C12.2734247,78.9788123 12.22,79.6366284 12.22,79.6366284 L11.7213699,85.0218008 L11.7712329,85.055249 C11.8282192,85.0998467 11.9350685,85.1704598 12.0775342,85.2596552 L12.0775342,85.2596552 L12.0561644,85.4231801 C11.9849315,85.9434866 11.8887671,86.5381226 11.7854795,87.0063985 C11.7755054,87.0393725 11.7671836,87.0728661 11.7605479,87.1067433 C11.5695596,87.1415594 11.387614,87.2175014 11.2263014,87.3297318 C10.1578082,89.2920307 10.6350685,90.8455172 11.2263014,91.2989272 C11.4376773,91.5591673 11.5626288,91.8838221 11.5824658,92.2243295 L11.7284932,94.1791954 L11.7284932,94.4059004 C11.7289896,94.4665531 11.7386043,94.5267489 11.7569863,94.5842912 L11.8032877,95.1752107 L11.8638356,96.0002682 L12.3446575,96.0002682 L12.3446575,95.06 L12.3731507,95.06 C13.1353425,95.0897318 14.3605479,95.1231801 14.8983562,95.0785824 L14.8983562,95.0785824 L15.0408219,95.0785824 C15.0704829,95.0748273 15.0993566,95.0660397 15.1263014,95.052567 C15.4076712,94.911341 16.1164384,92.822682 15.4824658,92.3469732 C14.8484932,91.8712644 14.7060274,90.5333333 14.7060274,90.5333333 C14.6490411,90.3549425 14.5956164,90.1877011 14.5386301,90.0278927 C14.5368553,89.9944701 14.5368553,89.9609705 14.5386301,89.9275479 C14.5054679,89.3466417 14.5305354,88.7637099 14.6134247,88.1882375 C14.7194168,87.5011385 14.7753759,86.8066483 14.7808219,86.110728 C14.7808219,86.0512644 14.7808219,85.9955172 14.7808219,85.9360536 L14.7808219,85.9174713 C14.8914314,85.8905892 14.9998112,85.8545491 15.1049315,85.8096935 L15.129863,85.8096935 C15.324146,85.7245919 15.5063053,85.6120457 15.6712329,85.4752107 L17.4342466,77.2395019 L17.6194521,76.2806513 L18.6879452,70.8360153 C18.6879452,70.8360153 18.3139726,68.9368966 18.6879452,68.6061303 C18.8268493,68.4909195 18.8660274,68.0040613 18.8553425,67.4317241 C18.8553425,66.4357088 18.6879452,65.2018391 18.6879452,65.2018391 C18.6879452,65.2018391 19.190137,64.3804981 19.4430137,63.871341 C19.6958904,63.3621839 19.4430137,62.0354023 19.4430137,62.0354023 L19.9452055,58.9953257 C20.33474,56.7022165 20.9901471,54.4670652 21.8969863,52.3391188 C22.9156164,50.1092337 22.2531507,44.0625287 21.6013699,40.8440613 L21.5479452,40.6024904 L22.6484932,40.0450192 L22.8016438,39.9706897 C23.3180822,39.7179693 23.870137,39.4578161 24.3545205,39.2273946 L24.3865753,39.2273946 C24.735821,39.0689426 25.0924292,38.9287809 25.4550685,38.807433 C25.5626877,38.7713869 25.6737567,38.7477089 25.7863014,38.7368199 C26.6767123,38.6216092 24.0339726,33.8124904 24.0339726,33.8124904 Z M4.36657534,44.1219923 L4.62657534,44.1219923 C4.59452055,44.1814559 4.5660274,44.2409195 4.53753425,44.3040996 C4.5187869,44.3389115 4.50213372,44.374907 4.48767123,44.4118774 C4.39106721,44.6161009 4.30545479,44.825788 4.23123288,45.0399617 C4.25972603,44.8132567 4.29534247,44.5679693 4.33452055,44.2966667 L4.36657534,44.1219923 Z M3.65424658,48.0763218 C3.65424658,48.0763218 3.65424658,48.0763218 3.65424658,48.054023 C3.65424658,48.0317241 3.65424658,48.0057088 3.62931507,47.98341 L3.58657534,47.8384674 C3.67561644,47.8087356 3.76821918,47.7790038 3.86082192,47.7418391 L3.86082192,47.7418391 C3.86082192,47.7418391 3.86082192,47.7752874 3.86082192,47.7938697 C3.86082192,47.8124521 3.8430137,47.9350958 3.83589041,48.0057088 L3.83589041,48.0057088 C3.83589041,48.0057088 3.83589041,48.0242912 3.83589041,48.0354406 C3.83589041,48.04659 3.83589041,48.1469349 3.83589041,48.202682 C3.83589041,48.2584291 3.80739726,48.4145211 3.79671233,48.5185824 L3.71123288,48.2361303 C3.68986301,48.1692337 3.67561644,48.1172031 3.65780822,48.0688889 L3.65424658,48.0763218 Z" id="Shape" fill="url(#linearGradient-1)" fill-rule="nonzero"></path>
                        <path d="M22.5273973,9.49187739 L20.960274,10.075364 L20.390411,9.08678161 C19.9523288,8.34348659 19.3468493,7.29172414 18.9016438,6.53727969 C18.1145205,5.21049808 19.1438356,3.19245211 19.1438356,3.19245211 C19.1438356,3.19245211 19.3254795,1.17068966 19.9915068,0.538888889 C20.6575342,-0.0929118774 20.8391781,3.19245211 20.8391781,3.19245211 C23.499726,4.45233716 22.0750685,7.42180077 22.0750685,7.42180077 L22.3315068,8.59992337 L22.5273973,9.49187739 Z" id="Path" fill="#BE6F72"></path>
                        <path d="M22.5273973,9.49187739 L20.960274,10.075364 L20.390411,9.08678161 L20.390411,9.00130268 C20.9689634,8.6182531 21.6639738,8.4750645 22.3386301,8.59992337 L22.5273973,9.49187739 Z" id="Path" fill="#000000" opacity="0.1"></path>
                        <path d="M19.9915068,16.1369349 L20.7786301,15.441954 L20.3832877,9.19084291 C20.9532078,8.79029819 21.6562862,8.65295447 22.3264672,8.81125012 C22.9966482,8.96954577 23.5745066,9.40944465 23.9235616,10.0270498 C23.8924836,10.6162847 23.8924836,11.2068571 23.9235616,11.796092 C23.9841096,12.1677395 23.499726,12.539387 23.9235616,12.9110345 C24.3473973,13.282682 23.9235616,14.5537165 23.9235616,14.5537165 C24.1378499,14.9647621 24.3998204,15.3467156 24.7035616,15.6909579 C25.0063014,15.9436782 25.3090411,18.0286207 24.7035616,18.4708812 C24.0980822,18.9131418 22.9476712,19.924023 22.9476712,20.3662835 C22.9476712,20.8085441 21.4980822,21.8788889 21.4980822,21.8788889 L20.2194521,20.1172797 L19.9915068,16.1369349 Z" id="Path" fill="#674B7C"></path>
                        <path d="M2.98465753,54.093295 C0.0498630137,52.7962452 0.701643836,49.6335249 1.25369863,48.0280077 C1.36596424,47.705968 1.49557718,47.3908042 1.64191781,47.084023 L3.28739726,46.0396935 C3.28739726,46.0396935 3.62219178,46.935364 3.98191781,48.1357854 C4.81534247,50.9082759 5.77342466,55.3271648 2.98465753,54.093295 Z" id="Path" fill="#BE6F72"></path>
                        <path d="M7.01643836,83.0334866 C6.81691364,83.4375709 6.66960318,83.8674711 6.57835616,84.311954 C6.43439182,85.026431 6.37340486,85.7563984 6.39671233,86.486092 C6.40099465,86.7655894 6.41882566,87.0446817 6.45013699,87.3222989 L3.18054795,89.6673946 C3.18054795,89.6673946 3.19835616,89.3923755 3.23041096,88.9872797 C3.31589041,87.9132184 3.49041096,85.9211877 3.65780822,85.664751 C3.81108259,85.1568956 3.89384109,84.6287463 3.90356164,84.0963985 C3.95342466,83.4460153 3.97479452,82.8439464 3.97479452,82.8439464 C3.97479452,82.8439464 7.89972603,81.3053257 7.01643836,83.0334866 Z" id="Path" fill="#BE6F72"></path>
                        <path d="M14.7309589,84.7281992 C14.7309589,84.7281992 14.7309589,85.3785824 14.709589,86.1404598 C14.7048489,86.8335075 14.6524771,87.5253079 14.5528767,88.2105364 C14.4698601,88.7834996 14.4447908,89.3639814 14.4780822,89.9424138 C14.4994521,90.6857088 14.5528767,91.3806897 14.5528767,91.3806897 C14.5528767,91.3806897 11.2156164,88.0916092 11.5539726,87.8314559 C11.6997813,87.6101344 11.7914881,87.3549521 11.8210959,87.0881609 C11.9208219,86.627318 12.0134247,86.025249 12.0810959,85.508659 C12.1630137,84.8954406 12.2128767,84.3937165 12.2128767,84.3937165 L14.7309589,84.7281992 Z" id="Path" fill="#BE6F72"></path>
                        <path d="M7.01643836,83.0334866 C6.81691364,83.4375709 6.66960318,83.8674711 6.57835616,84.311954 C5.68383091,84.2874973 4.79107808,84.2155524 3.90356164,84.0963985 C3.95342466,83.4460153 3.97479452,82.8439464 3.97479452,82.8439464 C3.97479452,82.8439464 7.89972603,81.3053257 7.01643836,83.0334866 Z" id="Path" fill="#000000" opacity="0.1"></path>
                        <path d="M14.7309589,84.7281992 C14.7309589,84.7281992 14.7309589,85.3785824 14.709589,86.1404598 C13.669589,86.4154789 12.6010959,85.8617241 12.0810959,85.5272414 C12.1630137,84.914023 12.2128767,84.4122989 12.2128767,84.4122989 L14.7309589,84.7281992 Z" id="Path" fill="#000000" opacity="0.1"></path>
                        <path d="M21.5657534,52.450613 C20.6923073,54.5772186 20.0622929,56.8039037 19.6887671,59.0845211 L19.2043836,62.1134483 C19.2043836,62.1134483 19.4465753,63.4402299 19.2043836,63.9456705 C18.9621918,64.4511111 18.4920548,65.2724521 18.4920548,65.2724521 C18.4920548,65.2724521 18.8482192,68.3682759 18.4920548,68.6841762 C18.1358904,69.0000766 18.4920548,70.8917625 18.4920548,70.8917625 L17.2810959,77.2729502 L15.5893151,85.4714943 C13.9545205,86.8614559 11.7819178,85.0998467 11.7819178,85.0998467 L12.2627397,79.7295402 C12.2627397,79.7295402 12.9750685,70.3194253 12.6865753,69.9403448 C12.3980822,69.5612644 12.8076712,68.3645594 12.8076712,68.3645594 C12.8076712,68.3645594 13.2315068,67.227318 12.9287671,66.7850575 C12.6260274,66.3427969 12.9893151,65.3950958 12.9893151,65.3950958 C12.9893151,65.3950958 12.8682192,61.5411111 13.2315068,60.65659 C13.5947945,59.772069 13.2315068,54.3014176 13.2315068,54.3014176 L13.0783562,52.599272 L12.9964384,51.6552874 L12.9964384,51.5623755 L12.850411,52.528659 C12.5832877,54.3088506 12.0134247,58.0030268 11.7819178,58.7649042 C11.6295167,59.3121911 11.4205254,59.8405595 11.1586301,60.3406897 C11.1586301,60.3406897 11.4756164,62.236092 11.1586301,62.7415326 C10.9778282,63.0707278 10.9605821,63.4707894 11.1123288,63.8155939 C11.1123288,63.8155939 11.4150685,65.3950958 10.5068493,66.0454789 C9.59863014,66.6958621 10.5068493,66.9931801 10.5068493,66.9931801 C10.5068493,66.9931801 9.84082192,68.5095019 9.59863014,69.1413027 C9.46483128,69.6358395 9.46483128,70.1593713 9.59863014,70.653908 L9.11424658,75.7714943 C8.88347412,76.9569575 8.76418666,78.1631019 8.75808219,79.3727586 C8.81863014,80.8221839 8.21315068,84.170728 8.21315068,84.170728 C8.21315068,84.170728 3.55452055,84.170728 2.83506849,83.6021073 C2.11561644,83.0334866 4.03890411,77.4773563 4.03890411,77.4773563 C4.03890411,77.4773563 4.58383562,67.751341 4.46273973,67.4986207 C4.34164384,67.2459004 4.46273973,65.3504981 4.88657534,64.9714176 C5.31041096,64.5923372 4.88657534,63.8341762 4.88657534,63.8341762 C4.88657534,63.8341762 4.76547945,62.3178544 4.88657534,61.9387739 C4.94256684,61.3922983 4.93539207,60.8407803 4.86520548,60.296092 C4.86520548,60.296092 4.46273973,57.2039847 4.40219178,55.4349425 C4.34164384,53.6659004 4.0460274,49.6855556 4.0460274,49.6855556 C4.0460274,49.6855556 4.35945205,47.2289655 4.40219178,46.0545594 C4.45642777,45.535467 4.60255721,45.0313944 4.83315068,44.5679693 C5.09499784,43.9955241 5.39490824,43.4428975 5.73068493,42.9141379 C5.73068493,42.9141379 20.0769863,38.495249 20.689589,38.9375096 C20.8463014,39.0527203 21.0813699,39.840613 21.3093151,40.9964368 C21.9183562,44.2186207 22.5452055,50.220728 21.5657534,52.450613 Z" id="Path" fill="#674B7C"></path>
                        <path d="M21.5657534,52.450613 C20.6923073,54.5772186 20.0622929,56.8039037 19.6887671,59.0845211 L19.2043836,62.1134483 C19.2043836,62.1134483 19.4465753,63.4402299 19.2043836,63.9456705 C18.9621918,64.4511111 18.4920548,65.2724521 18.4920548,65.2724521 C18.4920548,65.2724521 18.8482192,68.3682759 18.4920548,68.6841762 C18.1358904,69.0000766 18.4920548,70.8917625 18.4920548,70.8917625 L17.2810959,77.2729502 L15.5893151,85.4714943 C13.9545205,86.8614559 11.7819178,85.0998467 11.7819178,85.0998467 L12.2627397,79.7295402 C12.2627397,79.7295402 12.9750685,70.3194253 12.6865753,69.9403448 C12.3980822,69.5612644 12.8076712,68.3645594 12.8076712,68.3645594 C12.8076712,68.3645594 13.2315068,67.227318 12.9287671,66.7850575 C12.6260274,66.3427969 12.9893151,65.3950958 12.9893151,65.3950958 C12.9893151,65.3950958 12.8682192,61.5411111 13.2315068,60.65659 C13.5947945,59.772069 13.2315068,54.3014176 13.2315068,54.3014176 L13.0783562,52.599272 L12.9964384,51.6552874 L12.9964384,51.5623755 L12.850411,52.528659 C12.5832877,54.3088506 12.0134247,58.0030268 11.7819178,58.7649042 C11.6295167,59.3121911 11.4205254,59.8405595 11.1586301,60.3406897 C11.1586301,60.3406897 11.4756164,62.236092 11.1586301,62.7415326 C10.9778282,63.0707278 10.9605821,63.4707894 11.1123288,63.8155939 C11.1123288,63.8155939 11.4150685,65.3950958 10.5068493,66.0454789 C9.59863014,66.6958621 10.5068493,66.9931801 10.5068493,66.9931801 C10.5068493,66.9931801 9.84082192,68.5095019 9.59863014,69.1413027 C9.46483128,69.6358395 9.46483128,70.1593713 9.59863014,70.653908 L9.11424658,75.7714943 C8.88347412,76.9569575 8.76418666,78.1631019 8.75808219,79.3727586 C8.81863014,80.8221839 8.21315068,84.170728 8.21315068,84.170728 C8.21315068,84.170728 3.55452055,84.170728 2.83506849,83.6021073 C2.11561644,83.0334866 4.03890411,77.4773563 4.03890411,77.4773563 C4.03890411,77.4773563 4.58383562,67.751341 4.46273973,67.4986207 C4.34164384,67.2459004 4.46273973,65.3504981 4.88657534,64.9714176 C5.31041096,64.5923372 4.88657534,63.8341762 4.88657534,63.8341762 C4.88657534,63.8341762 4.76547945,62.3178544 4.88657534,61.9387739 C4.94256684,61.3922983 4.93539207,60.8407803 4.86520548,60.296092 C4.86520548,60.296092 4.46273973,57.2039847 4.40219178,55.4349425 C4.34164384,53.6659004 4.0460274,49.6855556 4.0460274,49.6855556 C4.0460274,49.6855556 4.35945205,47.2289655 4.40219178,46.0545594 C4.45642777,45.535467 4.60255721,45.0313944 4.83315068,44.5679693 C5.09499784,43.9955241 5.39490824,43.4428975 5.73068493,42.9141379 C5.73068493,42.9141379 20.0769863,38.495249 20.689589,38.9375096 C20.8463014,39.0527203 21.0813699,39.840613 21.3093151,40.9964368 C21.9183562,44.2186207 22.5452055,50.220728 21.5657534,52.450613 Z" id="Path" fill="#000000" opacity="0.15"></path>
                        <ellipse id="Oval" fill="#A1616A" cx="12.7293151" cy="9.49559387" rx="4.17780822" ry="4.35942529"></ellipse>
                        <path d="M21.2879452,40.9964368 C20.8071233,41.2528736 20.4865753,41.4312644 20.4865753,41.4312644 C20.4865753,41.4312644 13.7194521,44.776092 11.7747945,44.5902682 C10.2824658,44.4416092 6.47506849,44.5233716 4.81890411,44.5679693 C5.08075127,43.9955241 5.38066166,43.4428975 5.71643836,42.9141379 C5.71643836,42.9141379 20.0627397,38.495249 20.6753425,38.9375096 C20.8142466,39.0527203 21.0493151,39.840613 21.2879452,40.9964368 Z" id="Path" fill="#000000" opacity="0.1"></path>
                        <path d="M9.8230137,16.4528352 C9.8230137,16.4528352 5.94794521,17.084636 5.04328767,17.7164368 C4.13863014,18.3482375 2.31863014,19.548659 2.31863014,22.1353257 C2.32862386,24.1566895 2.10500075,26.1719367 1.65260274,28.137433 C1.41041096,28.880728 5.46712329,35.0203448 5.46712329,35.0203448 L4.0139726,44.3115326 C4.0139726,44.3115326 9.83013699,44.1219923 11.7641096,44.3115326 C13.6980822,44.5010728 20.4758904,41.1525287 20.4758904,41.1525287 C20.4758904,41.1525287 24.4684932,38.9449425 25.3161644,38.8817625 C26.1638356,38.8185824 23.6208219,34.0168966 23.6208219,34.0168966 C23.6208219,34.0168966 19.7030137,26.2494636 20.3547945,24.9858621 C20.8326832,23.99488 21.2179344,22.9581465 21.5052055,21.8900383 L20.7928767,15.449387 C20.1149888,15.2390993 19.3825583,15.3548978 18.7947945,15.7652874 C17.8865753,16.4602682 14.7986301,16.0811877 14.7986301,16.0811877 L9.8230137,16.4528352 Z" id="Path" fill="#674B7C"></path>
                        <path d="M3.25534247,27.6951724 L1.74164384,28.137433 L1.32136986,34.0837931 C1.32136986,34.0837931 1.86273973,35.663295 1.32136986,36.1687356 C0.78,36.6741762 0.655342466,47.4742529 0.655342466,47.4742529 C1.78896027,48.2567451 3.22850672,48.3760729 4.46630137,47.7901533 C4.46630137,47.7901533 4.16356164,46.5897318 5.07178082,42.2154406 C5.98,37.8411494 5.97287671,35.670728 5.97287671,35.670728 C5.97287671,35.670728 5.97287671,30.2409579 6.39671233,29.3527203 C6.82054795,28.4644828 6.39671233,26.2568966 6.39671233,26.2568966 C6.39671233,26.2568966 5.5490411,25.0564751 5.60958904,24.6142146 C5.67013699,24.171954 3.25534247,27.6951724 3.25534247,27.6951724 Z" id="Path" fill="#000000" opacity="0.1"></path>
                        <path d="M3.98191781,48.1357854 C3.0903305,48.4481217 2.12010197,48.409793 1.25369863,48.0280077 C1.36596424,47.705968 1.49557718,47.3908042 1.64191781,47.084023 L3.28739726,46.0396935 C3.28739726,46.0396935 3.62219178,46.935364 3.98191781,48.1357854 Z" id="Path" fill="#000000" opacity="0.1"></path>
                        <path d="M3.16630137,27.6951724 L1.65260274,28.137433 L1.22876712,34.0837931 C1.22876712,34.0837931 1.77369863,35.663295 1.22876712,36.1687356 C0.683835616,36.6741762 0.562739726,47.4742529 0.562739726,47.4742529 C1.69768651,48.2567154 3.13824056,48.3760152 4.37726027,47.7901533 C4.37726027,47.7901533 4.07452055,46.5897318 4.98273973,42.2154406 C5.8909589,37.8411494 5.88739726,35.670728 5.88739726,35.670728 C5.88739726,35.670728 5.88739726,30.2409579 6.31123288,29.3527203 C6.73506849,28.4644828 6.31123288,26.2568966 6.31123288,26.2568966 C6.31123288,26.2568966 5.46712329,25.0564751 5.52767123,24.6142146 C5.58821918,24.171954 3.16630137,27.6951724 3.16630137,27.6951724 Z" id="Path" fill="#674B7C"></path>
                        <path d="M18.6594521,28.6428736 C18.6594521,28.6428736 17.8723288,35.7041762 15.5715068,37.0421073 C15.5893151,37.0421073 20.7180822,35.5257854 18.6594521,28.6428736 Z" id="Path" fill="#000000" opacity="0.1"></path>
                        <path d="M7.09835616,29.2746743 C7.09835616,29.2746743 9.94767123,30.7278161 9.27808219,31.7349808 C8.60849315,32.7421456 7.09835616,29.2746743 7.09835616,29.2746743 Z" id="Path" fill="#000000" opacity="0.1"></path>
                        <path d="M7.09835616,32.1772414 C7.09835616,32.1772414 8.91479452,34.1358238 8.55150685,34.8308046 C8.18821918,35.5257854 7.09835616,32.1772414 7.09835616,32.1772414 Z" id="Path" fill="#000000" opacity="0.1"></path>
                        <path d="M21.7473973,15.9473946 C21.7473973,15.9473946 22.459726,17.2109962 22.5238356,18.0323372 C22.5879452,18.8536782 21.7473973,15.9473946 21.7473973,15.9473946 Z" id="Path" fill="#000000" opacity="0.1"></path>
                        <path d="M21.7473973,14.2415326 C21.7473973,14.2415326 22.1035616,13.9256322 23.0153425,14.2415326 C23.9271233,14.557433 21.7473973,14.2415326 21.7473973,14.2415326 Z" id="Path" fill="#000000" opacity="0.1"></path>
                        <path d="M18.249863,51.1572797 C16.7512535,51.3800735 15.2227959,51.1758951 13.8263014,50.5663602 L13.0605479,52.6029885 L12.9786301,51.6590038 C13.1032877,50.8673946 13.3347945,50.0200383 13.8263014,49.8007663 C15.1224885,50.7379174 16.6738614,51.2136558 18.249863,51.1572797 Z" id="Path" fill="#000000" opacity="0.1"></path>
                        <path d="M5.83753425,53.8108429 C5.83753425,53.8108429 9.55945205,54.624751 10.6030137,54.4723755 L5.83753425,53.8108429 Z" id="Path" fill="#000000" opacity="0.1"></path>
                        <path d="M6.22219178,54.8291571 C6.22219178,54.8291571 7.81068493,54.7585441 8.60493151,55.0893103 L6.22219178,54.8291571 Z" id="Path" fill="#000000" opacity="0.1"></path>
                        <path d="M6.40383562,55.5129885 C7.12846824,55.6769475 7.86451883,55.7800996 8.60493151,55.8214559 L6.40383562,55.5129885 Z" id="Path" fill="#000000" opacity="0.1"></path>
                        <path d="M6.3290411,64.2058238 C6.40027397,64.1575096 9.50958904,63.4030651 9.89068493,63.9456705 L6.3290411,64.2058238 Z" id="Path" fill="#000000" opacity="0.1"></path>
                        <path d="M6.3290411,65.2018391 C6.3290411,65.2018391 9.03232877,64.8710728 9.1,65.2018391 C9.16767123,65.5326054 6.3290411,65.2018391 6.3290411,65.2018391 Z" id="Path" fill="#000000" opacity="0.1"></path>
                        <path d="M6.3290411,66.1012261 C6.3290411,66.1012261 9.2139726,65.4842912 9.53452055,65.6292337 C9.85506849,65.7741762 6.3290411,66.1012261 6.3290411,66.1012261 Z" id="Path" fill="#000000" opacity="0.1"></path>
                        <path d="M6.45013699,87.3297318 L3.18054795,89.6748276 C3.18054795,89.6748276 3.19835616,89.3998084 3.23041096,88.9947126 C3.61983642,87.9473539 4.18688125,86.9817575 4.90438356,86.1441762 C5.64164384,85.9472031 6.10821918,86.1441762 6.39671233,86.4935249 C6.40099465,86.7730223 6.41882566,87.0521147 6.45013699,87.3297318 L6.45013699,87.3297318 Z" id="Path" fill="#000000" opacity="0.1"></path>
                        <path d="M6.76712329,89.4295402 C6.30690488,90.5270564 6.07504344,91.7139601 6.08684932,92.9118774 C6.10074406,93.8976877 5.854298,94.8684649 5.37452055,95.7178161 C5.30708329,95.8377384 5.23087518,95.9520499 5.14657534,96.0597318 C5.14657534,96.0597318 2.87424658,96.0597318 2.08,95.3536015 C1.99262803,95.2823898 1.9209609,95.1923972 1.86986301,95.0897318 C1.4139726,94.1420307 2.75315068,90.5184674 2.75315068,90.5184674 C3.12140127,88.9302035 3.85487193,87.4594444 4.89013699,86.2333716 C7.44739726,85.5458238 6.76712329,89.4295402 6.76712329,89.4295402 Z" id="Path" fill="#35323E"></path>
                        <path d="M5.39232877,95.7178161 C5.32489151,95.8377384 5.2486834,95.9520499 5.16438356,96.0597318 C5.16438356,96.0597318 2.89205479,96.0597318 2.09780822,95.3536015 C2.48958904,94.0045211 3.73616438,89.9201149 4.32027397,90.6150958 C4.90438356,91.3100766 5.26054795,94.3910345 5.39232877,95.7178161 Z" id="Path" fill="#000000" opacity="0.1"></path>
                        <path d="M5.07890411,90.8678161 L4.92219178,96.992567 L5.68438356,96.992567 C5.68438356,96.992567 5.80547945,91.625977 6.14739726,90.875249 C6.48931507,90.1245211 5.07890411,90.8678161 5.07890411,90.8678161 Z" id="Path" fill="#35323E"></path>
                        <path d="M14.5528767,91.3695402 C14.5528767,91.3695402 11.2156164,88.0804598 11.5539726,87.8203065 C11.6997813,87.598985 11.7914881,87.3438026 11.8210959,87.0770115 C12.4621918,86.9580843 13.5591781,87.2405364 14.4780822,89.912682 C14.4994521,90.6745594 14.5528767,91.3695402 14.5528767,91.3695402 Z" id="Path" fill="#000000" opacity="0.1"></path>
                        <path d="M15.0515068,95.0414176 C15.0250296,95.0527111 14.9976065,95.0614201 14.969589,95.067433 C14.0882053,95.1199052 13.2046715,95.1199052 12.3232877,95.067433 C12.0149466,95.0574413 11.7694387,94.794692 11.7676712,94.4727969 C11.7676712,94.246092 11.7676712,93.9673563 11.7676712,93.6700383 C11.7284932,92.7372031 11.6180822,91.625977 11.3010959,91.3732567 C10.7347945,90.9235632 10.2824658,89.3737931 11.3010959,87.4189272 C11.3010959,87.4189272 13.2528767,85.8654406 14.659726,90.5370498 C14.659726,90.5370498 14.7950685,91.8712644 15.4076712,92.3469732 C16.020274,92.822682 15.3221918,94.9001916 15.0515068,95.0414176 Z" id="Path" fill="#35323E"></path>
                        <path d="M14.969589,95.067433 C14.0882053,95.1199052 13.2046715,95.1199052 12.3232877,95.067433 C12.0149466,95.0574413 11.7694387,94.794692 11.7676712,94.4727969 C11.7676712,94.246092 11.7676712,93.9673563 11.7676712,93.6700383 C12.0134247,92.5550958 12.3660274,91.3732567 12.8361644,91.109387 C12.8041096,91.1056705 14.1824658,90.9421456 14.969589,95.067433 Z" id="Path" fill="#000000" opacity="0.1"></path>
                        <polygon id="Path" fill="#35323E" points="11.5326027 90.9681609 11.8958904 96.0597318 12.3624658 96.0597318 12.3624658 90.5370498"></polygon>
                        <path d="M12.6687671,2.54950192 C11.3495146,2.65106166 10.0724318,3.07912435 8.94328767,3.79823755 C8.63296356,3.95605055 8.38219729,4.21771809 8.2309589,4.54153257 C8.15832863,4.83751832 8.13900561,5.14500446 8.1739726,5.44835249 C8.21315068,8.04988506 5.42082192,10.0381992 5.50986301,12.6471648 C5.54547945,13.6840613 6.04410959,14.6466284 6.13315068,15.6798084 C6.28630137,17.4005364 5.31041096,18.9874713 4.37369863,20.4145977 C5.33849417,20.4768567 6.28907016,20.1479989 7.02712329,19.4966284 C8.01107938,22.9350095 8.13370553,26.579223 7.38328767,30.0811494 L8.72246575,30.0811494 C8.85505095,30.0720361 8.98807591,30.0897025 9.11424658,30.1331801 C9.23262403,30.1901422 9.33819674,30.2724472 9.42410959,30.374751 C10.6742466,31.6718008 11.5147945,33.5932184 11.0339726,35.3696935 L13.8832877,34.254751 C14.5771209,34.0180321 15.239037,33.689548 15.8528767,33.277318 C16.4692337,32.8547889 16.904584,32.1993529 17.0673973,31.4488123 C17.1421918,30.9954023 17.1208219,30.4490805 17.4769863,30.1852107 C17.6548044,30.0881754 17.8439747,30.0157143 18.039726,29.9696552 C18.8232877,29.6797701 19.1687671,28.7357854 19.3254795,27.8884291 C19.5212588,26.8461492 19.5823501,25.7811996 19.5071233,24.7219923 C19.3824658,22.9492337 18.880274,21.1467433 19.2934247,19.4185824 C19.5284932,18.4485824 20.0484932,17.5603448 20.0912329,16.5383142 C20.1589041,14.8844828 18.9194521,13.4573563 18.7342466,11.8109579 C18.6060274,10.6662835 19.0013699,9.5067433 18.8731507,8.35835249 C18.7266911,7.15761619 18.029024,6.10652865 17.0032877,5.54126437 C16.6471233,5.35172414 16.269589,5.22536398 15.9347945,5.02095785 C15.1441096,4.54153257 14.6419178,3.67931034 13.9260274,3.0883908 C13.210137,2.49747126 12.0134247,2.27448276 11.4756164,3.0437931 L12.6687671,2.54950192 Z" id="Path" fill="#000000" opacity="0.1"></path>
                        <path d="M12.6687671,2.35996169 C11.3495146,2.46152143 10.0724318,2.88958412 8.94328767,3.60869732 C8.63296356,3.76651032 8.38219729,4.02817786 8.2309589,4.35199234 C8.15832863,4.64797809 8.13900561,4.95546423 8.1739726,5.25881226 C8.21315068,7.86034483 5.42082192,9.848659 5.50986301,12.4576245 C5.54547945,13.4945211 6.04410959,14.4608046 6.13315068,15.4902682 C6.28630137,17.2147126 5.31041096,18.797931 4.37369863,20.2250575 C5.34186719,20.2943099 6.29807073,19.9692681 7.04136986,19.3182375 C8.02532595,22.7566187 8.1479521,26.4008322 7.39753425,29.9027586 L8.73671233,29.9027586 C8.86929753,29.8936453 9.00232249,29.9113117 9.12849315,29.9547893 C9.24687061,30.0117514 9.35244332,30.0940564 9.43835616,30.1963602 C10.6884932,31.49341 11.5290411,33.4148276 11.0482192,35.1913027 L13.8975342,34.0763602 C14.5913674,33.8396413 15.2532836,33.5111572 15.8671233,33.0989272 C16.4834803,32.6763981 16.9188305,32.0209621 17.0816438,31.2704215 C17.1564384,30.8170115 17.1350685,30.2706897 17.4912329,30.0068199 C17.669051,29.9097846 17.8582213,29.8373235 18.0539726,29.7912644 C18.8375342,29.5013793 19.1830137,28.5573946 19.339726,27.7100383 C19.5355054,26.6677584 19.5965967,25.6028088 19.5213699,24.5436015 C19.3967123,22.7708429 18.8945205,20.9683525 19.3076712,19.2401916 C19.5427397,18.2701916 20.0627397,17.3633716 20.1054795,16.3599234 C20.1731507,14.706092 18.9336986,13.2789655 18.7484932,11.632567 C18.620274,10.4878927 19.0156164,9.32835249 18.8873973,8.17996169 C18.7409377,6.97922538 18.0432706,5.92813784 17.0175342,5.36287356 C16.6613699,5.17333333 16.2838356,5.04697318 15.9490411,4.84256705 C15.1583562,4.36314176 14.6561644,3.50091954 13.940274,2.91 C13.2243836,2.31908046 12.0276712,2.09609195 11.489863,2.8654023 L12.6687671,2.35996169 Z" id="Path" fill="#A26565"></path>
                        <g id="Group" opacity="0.1" transform="translate(4.273973, 4.459770)" fill="#000000">
                            <path d="M3.90712329,0.163524904 C3.90712329,0.222988506 3.90712329,0.278735632 3.90712329,0.338199234 C3.90356164,0.282452107 3.90712329,0.222988506 3.90712329,0.163524904 Z" id="Path"></path>
                            <path d="M14.4780822,6.23624521 C14.5896775,5.4376107 14.6432548,4.63131592 14.6383562,3.82425287 C14.5265164,4.62285997 14.4729378,5.42917412 14.4780822,6.23624521 Z" id="Path"></path>
                            <path d="M1.86986301,10.2314559 C1.78794521,9.29118774 1.36767123,8.40666667 1.26794521,7.47383142 C1.24830898,7.64521611 1.24116518,7.81790862 1.24657534,7.99042146 C1.28219178,9.01616858 1.77013699,9.97130268 1.86630137,10.9933333 C1.89249797,10.7401721 1.89369145,10.4848718 1.86986301,10.2314559 Z" id="Path"></path>
                            <path d="M15.0479452,13.9665134 C14.9094721,14.5834908 14.8590655,15.2184227 14.8983562,15.8507663 C14.9149562,15.4824314 14.9650441,15.1165742 15.0479452,14.7581226 C15.2830137,13.7881226 15.8030137,12.8813027 15.8457534,11.8778544 C15.8516631,11.699051 15.8433239,11.5200443 15.8208219,11.342682 C15.7139726,12.2569349 15.2616438,13.0782759 15.0479452,13.9665134 Z" id="Path"></path>
                            <path d="M2.76739726,14.0519923 C2.16371229,14.5815583 1.41660966,14.9011864 0.630410959,14.9662452 C0.463013699,15.2338314 0.274246575,15.5014176 0.12109589,15.7578544 C1.08109557,15.8233219 2.02849495,15.5013334 2.76739726,14.8584674 C3.2965515,16.6996073 3.58058134,18.6079259 3.61150685,20.5298084 C3.65791077,18.3376784 3.37304868,16.1516065 2.76739726,14.0519923 L2.76739726,14.0519923 Z" id="Path"></path>
                            <path d="M15.0835616,22.4363602 C14.9232877,23.287433 14.5778082,24.2314176 13.7942466,24.5175862 C13.5978677,24.5632269 13.4084899,24.6370181 13.2315068,24.7368582 C12.8753425,25.000728 12.8967123,25.5470498 12.8219178,25.9967433 C12.6591045,26.747284 12.2237543,27.4027199 11.6073973,27.825249 C10.9935575,28.237479 10.3316414,28.5659631 9.63780822,28.802682 L6.92027397,29.8655939 C6.90625718,30.1510133 6.86206212,30.433943 6.78849315,30.7092337 L9.63780822,29.5942912 C10.3316414,29.3575723 10.9935575,29.0290882 11.6073973,28.6168582 C12.2237543,28.1943291 12.6591045,27.5388932 12.8219178,26.7883525 C12.8967123,26.3349425 12.8753425,25.7886207 13.2315068,25.524751 C13.409325,25.4277156 13.5984953,25.3552546 13.7942466,25.3091954 C14.5778082,25.0193103 14.9232877,24.0753257 15.0835616,23.2279693 C15.2471537,22.3442697 15.3152506,21.4442128 15.2865753,20.5446743 C15.2653218,21.1797225 15.1974518,21.8121368 15.0835616,22.4363602 Z" id="Path"></path>
                            <path d="M5.17863014,24.922682 C5.09169377,24.8215396 4.9863675,24.7394267 4.86876712,24.6811111 C4.74259646,24.6376336 4.6095715,24.6199671 4.4769863,24.6290805 L3.2909589,24.6290805 C3.24465753,24.8929502 3.19479452,25.1568199 3.13780822,25.4169732 L4.4769863,25.4169732 C4.6095715,25.4078598 4.74259646,25.4255263 4.86876712,25.4690038 C4.98714458,25.5259659 5.09271729,25.608271 5.17863014,25.7105747 C6.1252836,26.6536246 6.73474423,27.905866 6.9060274,29.2598084 C7.05917808,27.684023 6.27917808,26.0636398 5.17863014,24.922682 Z" id="Path"></path>
                        </g>
                        <path d="M2.81013699,34.5557854 C2.81013699,34.5557854 3.87863014,34.0800766 4.13506849,34.5557854 C4.39150685,35.0314943 2.81013699,34.5557854 2.81013699,34.5557854 Z" id="Path" fill="#000000" opacity="0.1"></path>
                        <path d="M3.18410959,35.3585441 C3.18410959,35.3585441 4.25260274,34.8828352 4.5090411,35.3585441 C4.76547945,35.8342529 3.18410959,35.3585441 3.18410959,35.3585441 Z" id="Path" fill="#000000" opacity="0.1"></path>
                    </g>
                    <path d="M80,21.6957166 L80.1042578,22.5036798 L83.6297164,23 C83.6297164,23 83.9193214,22.7845432 84.3711053,22.4921375 C85.2090292,21.9496479 86.6068561,21.1339899 87.8038902,20.9031433 C89.6457782,20.5414836 95.526691,17.9136796 93.626882,17.7405447 C91.727073,17.5674097 91.9317273,17.9598489 91.9317273,17.9598489 C91.9317273,17.9598489 89.846571,15.9207039 87.6841868,17.786714 C86.0508144,19.2025732 82.4558507,20.7223134 80.8224783,21.3725314 L80,21.6957166 Z" id="Path" fill="#EFB7B9"></path>
                    <path d="M93.0623442,13.4276218 C93.5858891,13.2117 94.1377508,13.0711226 94.7012484,13.0101388 C95.2731013,12.9526859 95.842346,13.1412793 96.2651456,13.528265 C96.4864164,13.7556442 96.6401809,14.0463913 96.8426999,14.2737704 C97.885298,15.3920286 99.9104886,14.553335 101.166857,15.4181213 C101.93943,15.9474301 102.179452,16.9538624 102.453228,17.8484689 C102.727004,18.7430754 103.225801,19.7308701 104.148387,19.9209739 C104.595024,19.9630108 105.045311,19.9454599 105.487263,19.8687886 C105.936974,19.7986551 106.391137,19.9651085 106.687376,20.3086368 C107.114917,20.9497714 106.526111,22.0307543 107.144919,22.4892401 C107.696221,22.8955405 108.701316,22.3252289 109.087602,22.8955405 C109.237681,23.2039371 109.185858,23.5718459 108.95634,23.8274223 C108.726282,24.0717736 108.515632,24.3334847 108.326281,24.610203 C108.121168,24.9975199 108.146722,25.46552 108.392803,25.8284995 C108.638883,26.191479 109.0657,26.390746 109.503891,26.3472306 C109.878927,26.3099553 110.310217,26.0863037 110.651499,26.2801351 C110.860174,26.4275454 110.987756,26.6632383 110.996532,26.9175422 C111.053917,27.8116867 110.392654,28.5921573 109.496391,28.6881176 C108.832578,28.7291204 108.221271,28.3712778 107.621214,28.0693481 C107.021158,27.7674184 106.331093,27.510219 105.712285,27.7599634 C105.429364,27.899416 105.16999,28.0817595 104.943462,28.3004548 C104.238293,28.8881191 103.441541,29.3577212 102.58449,29.6908224 C101.83442,29.9815695 100.953087,30.1604908 100.229269,29.7951931 C99.415442,29.3814376 98.9954025,28.3712778 98.1328213,28.0656206 C97.2702402,27.7599634 96.2838973,28.330275 95.4588197,28.811126 C94.633742,29.291977 93.5273879,29.7057325 92.7810677,29.1056006 C92.0347475,28.5054688 92.2260155,27.1672866 91.7347192,26.265225 C91.537354,25.9275927 91.2702049,25.6353902 90.9508955,25.4078938 C90.3995936,24.9829557 89.7732846,24.6623884 89.2219828,24.2523604 C88.6388848,23.8642986 88.2176721,23.2787198 88.0368712,22.6047934 C87.8756061,21.788465 88.2693931,20.9684091 88.7119348,20.2639064 C89.1544764,19.5594038 89.6757755,18.8660838 89.8370406,18.0497554 C89.9420505,17.4384409 89.8370406,16.8010338 89.9758037,16.1859918 C90.1807217,15.4474909 90.7437953,14.8598621 91.4759449,14.6204305 C91.880983,14.482512 91.95599,14.5160597 92.1585091,14.1619446 C92.3452607,13.8039626 92.6722208,13.5383232 93.0623442,13.4276218 L93.0623442,13.4276218 Z" id="Path" fill="#F86D70"></path>
                    <g id="Group" opacity="0.1" transform="translate(88.000000, 20.000000)" fill="#000000">
                        <path d="M18.7820968,0.259259259 C18.867127,0.614433196 18.8884783,0.981835734 18.8451613,1.34444444 C18.7552821,0.990000306 18.7338789,0.621702953 18.7820968,0.259259259 Z" id="Path"></path>
                        <path d="M20.3179032,4.35185185 C20.2550065,4.47583683 20.2148049,4.61004453 20.1991935,4.74814815 C20.0656345,4.423631 20.0805367,4.05708685 20.24,3.74444444 C20.4272973,3.4694947 20.6356635,3.20945628 20.8632258,2.96666667 C20.9426233,2.86005985 21.0040249,2.74120756 21.045,2.61481481 C21.054537,2.62521294 21.0632209,2.63635998 21.0709677,2.64814815 C21.2236696,2.95389442 21.1720588,3.32194974 20.941129,3.57407407 C20.7148814,3.81799679 20.5065963,4.07793385 20.3179032,4.35185185 L20.3179032,4.35185185 Z" id="Path"></path>
                        <path d="M1.33919355,3.3962963 C1.88451613,3.81111111 2.50403226,4.13703704 3.04935484,4.54444444 C3.36423979,4.7715627 3.62828846,5.06167465 3.82467742,5.3962963 C4.31064516,6.29259259 4.06580645,7.57777778 4.85967742,8.21851852 C5.65354839,8.85925926 6.69596774,8.41481481 7.5083871,7.92592593 C8.32080645,7.43703704 9.25935484,6.86296296 10.1533871,7.18518519 C11.0474194,7.50740741 11.4220968,8.49259259 12.2270968,8.9037037 C12.9430645,9.27407407 13.811129,9.08888889 14.5567742,8.8 C15.4045296,8.46902774 16.1926402,8.00242696 16.8901613,7.41851852 C17.1142318,7.20122093 17.3707933,7.02004285 17.6506452,6.88148148 C18.2627419,6.63333333 18.9527419,6.88148148 19.538871,7.18888889 C20.125,7.4962963 20.7333871,7.84444444 21.3937097,7.8037037 C22.1749715,7.71811214 22.791851,7.102226 22.8775806,6.32222222 C22.9182961,6.42424939 22.9445179,6.53146085 22.9554839,6.64074074 C23.0142002,7.52981174 22.3591206,8.3064661 21.4716129,8.4 C20.8112903,8.44074074 20.2066129,8.08518519 19.6167742,7.78518519 C19.0269355,7.48518519 18.3369355,7.22962963 17.7248387,7.47777778 C17.451932,7.61859901 17.2018169,7.79964044 16.9829032,8.01481481 C16.2848494,8.59797233 15.4968671,9.06449715 14.6495161,9.3962963 C13.9075806,9.68518519 13.0320968,9.86296296 12.3198387,9.5 C11.511129,9.08888889 11.0993548,8.08518519 10.2424194,7.78148148 C9.38548387,7.47777778 8.41354839,8.04444444 7.60112903,8.52222222 C6.78870968,9 5.69064516,9.40740741 4.95241935,8.81481481 C4.15483871,8.17407407 4.39967742,6.88888889 3.91370968,5.99259259 C3.71959971,5.65630497 3.45515063,5.36575308 3.1383871,5.14074074 C2.59677419,4.71851852 1.97725806,4.4 1.42822581,3.99259259 C0.851395626,3.60784819 0.435695026,3.02548695 0.259677419,2.35555556 C0.230771928,2.21300025 0.218325132,2.06760724 0.222580645,1.92222222 C0.429911688,2.51877421 0.820712638,3.03468223 1.33919355,3.3962963 Z" id="Path"></path>
                    </g>
                    <path d="M91.0223862,41.0617103 L90,41.4280974 C90,41.4280974 91.0100311,44.1992224 92.5636875,42.382768 C94.1173439,40.5663137 91.0223862,41.0617103 91.0223862,41.0617103 Z" id="Path" fill="#4C4981"></path>
                    <path d="M91.0223862,41.0617103 L90,41.4280974 C90,41.4280974 91.0100311,44.1992224 92.5636875,42.382768 C94.1173439,40.5663137 91.0223862,41.0617103 91.0223862,41.0617103 Z" id="Path" fill="#000000" opacity="0.1"></path>
                    <path d="M118,59.7930782 C118,59.7930782 119.714776,60.6595174 121.31374,61.6648794 C122.46066,62.3960517 123.555278,63.1710943 123.902716,63.7633439 C124.754501,65.1781623 128.890138,66.7063125 128.890138,66.7063125 L132.999624,69.7662686 C133.967221,70.0806727 134.908667,71.2286132 135.293464,71.7440897 C135.413013,71.9012917 135.476523,72 135.476523,72 L137.124054,71.7916159 L137.990782,70.6948574 C137.990782,70.6948574 138.211199,68.2637095 136.496423,68.2929564 C136.161641,68.2779651 135.833574,68.195839 135.532562,68.0516695 C133.694501,67.2546917 131.120468,64.7613941 131.120468,64.7613941 C131.120468,64.7613941 126.745733,59.4128686 125.43817,59.2373873 C125.298067,59.2166362 125.160411,59.1823472 125.027221,59.1350232 C123.697242,58.6780405 121.791935,57 121.791935,57 L118,59.7930782 Z" id="Path" fill="#EFB7B9"></path>
                    <path d="M102.081936,76.1155624 C102.496046,78.6322548 104.398809,83.4643041 105.009264,84.470981 C105.766085,85.7185413 106.165915,88.213662 106.165915,88.213662 L106.38725,89.9465845 C106.427432,90.1908709 106.510865,90.4259 106.633573,90.6404725 C106.69977,90.7641251 106.772461,90.8841377 106.851338,91 L110,90.0256805 C110,90.0256805 109.817935,89.3066256 109.543051,88.4581407 C109.268168,87.6096559 108.854058,86.5706215 108.472078,86.1823318 C107.704547,85.4201335 107.58674,82.7380586 107.58674,82.7380586 C107.58674,82.7380586 106.947726,77.575244 106.751381,76.9280945 C106.563283,76.3080544 106.443565,75.6690369 106.394389,75.0225989 C106.36583,74.6630714 106.344411,74.2819723 106.340841,73.8325629 C106.276122,72.5438556 106.110197,71.262331 105.844623,70 L102.171184,70.6723164 L102.074796,74.8032871 C101.972709,75.2349664 101.975157,75.6850358 102.081936,76.1155624 L102.081936,76.1155624 Z" id="Path" fill="#EFB7B9"></path>
                    <path d="M135,72.7407407 C135.132511,72.9 135.202908,73 135.202908,73 L137.029076,72.7888889 L137.989782,71.6777778 C137.989782,71.6777778 138.234099,69.2148148 136.333393,69.2444444 C135.962312,69.229257 135.598673,69.1460562 135.265022,69 C135.111806,69.7407407 136.035243,70.3481481 136.035243,70.3481481 C136.035243,70.3481481 136.416213,70.5962963 136.325111,71.7555556 C136.271278,72.5444444 135.488635,72.7111111 135,72.7407407 Z" id="Path" fill="#000000" opacity="0.1"></path>
                    <path d="M134,72.4849947 C134.113322,72.8418136 135.199017,73.368705 135.952755,73.6955111 C136.323766,73.8589141 136.612764,73.9722958 136.671345,73.9956391 C136.847087,74.0690037 137.75704,73.2019672 137.882012,72.5050033 C138.006985,71.8080393 140.182281,69.6304438 140.182281,69.6304438 C140.642271,68.7726042 140.916177,67.8506204 140.990694,66.909283 C141.072707,65.9588776 140.600156,65.885513 140.065119,66.0989374 C139.674414,66.2755339 139.323906,66.5104521 139.030194,66.7925666 C138.658362,67.0920729 138.195638,67.2965621 137.694554,67.3828184 C137.011346,67.5272652 136.359895,67.7648607 135.765297,68.0864518 C135.238071,68.3765756 134.726466,68.7300597 134.632737,69.0435267 C134.433563,69.7271517 135.347422,70.3073992 135.347422,70.3073992 C135.347422,70.3073992 135.706716,70.5341626 135.624704,71.5746064 C135.542691,72.6150502 133.98835,72.4516472 134,72.4849947 Z" id="Path" fill="#FF6484"></path>
                    <path d="M137,73.6955111 C137.294031,73.8589141 137.523065,73.9722958 137.569491,73.9956391 C137.708768,74.0690037 138.429917,73.2019672 138.528959,72.5050033 C138.628001,71.8080393 140.351948,69.6304438 140.351948,69.6304438 C140.716495,68.7726042 140.93357,67.8506204 140.992625,66.909283 C141.057621,65.9588776 140.683119,65.885513 140.259096,66.0989374 C140.18791,66.8525922 140.011492,68.31655 139.640085,69.0802091 C139.225347,69.9872626 137.479734,72.9051739 137,73.6955111 Z" id="Path" fill="#000000" opacity="0.1"></path>
                    <path d="M106.128966,90.511161 C106.122048,90.5356122 106.113838,90.5593501 106.104401,90.5821889 C106.161339,90.725887 106.223864,90.865355 106.291709,91 L109,89.8677319 C109,89.8677319 108.843398,89.0321098 108.60696,88.0460756 C107.535312,87.6282645 106,90.1894465 106,90.1894465 L106.128966,90.511161 Z" id="Path" fill="#000000" opacity="0.1"></path>
                    <path d="M106.063988,93.2292133 C106.063988,93.2292133 108.260253,94.1241337 109.252307,93.9853863 C110.002325,93.8813258 110.035194,93.4754898 109.984396,92.6430058 C109.966467,92.3793858 109.942562,92.070673 109.93061,91.7133986 C109.879812,90.2392081 109.368844,89.9443699 109.368844,89.9443699 C108.532171,87.3948875 106.120762,90.8150095 106.120762,90.8150095 L106.249251,91.0925042 C106.073537,91.5258423 105.988555,92.0012602 106.001237,92.4799776 C106.001527,92.7314741 106.022539,92.9823619 106.063988,93.2292133 Z" id="Path" fill="#FF6484"></path>
                    <path d="M106.06277,92.9835022 C106.06277,92.9835022 108.259715,94.1637049 109.252076,93.9807278 C110.002325,93.8434949 110.035205,93.3082867 109.984391,92.2104237 C109.485195,92.8464123 108.834783,93.1334165 108.190967,93.0018 C107.430081,92.8511743 106.69017,92.5128566 106,92 C106.00048,92.3301399 106.021498,92.6594599 106.06277,92.9835022 L106.06277,92.9835022 Z" id="Path" fill="#000000" opacity="0.1"></path>
                    <path d="M92,26.8451746 L93.0850683,31.5273046 L93.3051172,32.4905069 L95.32729,32.7396751 L97.406372,33 L99.6827392,32.1929927 C99.6827392,32.1929927 100.316328,30.0843607 99.7927636,28.5000975 C99.6297941,27.9358519 99.255915,27.4525149 98.7456347,27.1464078 C98.5859197,27.0539853 98.4392383,26.941461 98.309331,26.8117043 C98.1530148,26.6652956 98.0245447,26.4927716 97.9299364,26.3022112 C97.8192832,26.0678577 97.7524611,25.8159314 97.7326513,25.5584256 C97.6188329,24.2977091 98.4345312,22.917987 98.4345312,22.917987 C98.4345312,22.917987 93.6313965,21.3114102 94.006997,22.348991 C94.2498095,23.0221169 93.5744873,24.2084549 93.0698926,24.9299268 C92.7967285,25.331571 92.5728857,25.6067717 92.5728857,25.6067717 L92,26.8451746 Z" id="Path" fill="#EFB7B9"></path>
                    <circle id="Oval" fill="#000000" opacity="0.1" cx="96" cy="21" r="4"></circle>
                    <circle id="Oval" fill="#EFB7B9" cx="96" cy="21" r="4"></circle>
                    <path d="M92.4143445,41.243426 C92.6157081,42.1525169 93.5412066,43.5837716 93.5412066,43.5837716 L99.4814348,45 L103.741051,40.7024793 L103.741051,40.6761833 C103.60939,40.2742299 101.986864,35.1915853 103.160194,33.9368896 C104.333525,32.6821938 103.93467,28.9631856 103.93467,28.9631856 C103.93467,28.9631856 101.812607,26.5927874 101.386645,26.0217881 C100.960683,25.4507889 98.20355,25 98.20355,25 C98.3390832,25.1803156 98.4668717,25.353118 98.5907878,25.5146506 C98.8871308,25.9451408 99.1155388,26.416151 99.268454,26.9120962 C99.4428147,27.4024906 99.4220995,27.9383768 99.2103683,28.4147258 C99.1483761,28.5343944 99.1003204,28.6603907 99.0670903,28.7903832 C98.6024049,30.7625845 96.4880864,30.4883546 95.6439079,30.2930128 C95.4270548,30.2404207 95.2953939,30.1953418 95.2953939,30.1953418 L93.2701401,30.2592036 L92,30.3005259 C92,30.3005259 92.5769844,40.0150263 92.4414511,40.7888805 C92.4006309,40.9370286 92.3914072,41.0916998 92.4143445,41.243426 L92.4143445,41.243426 Z" id="Path" fill="#FF6484"></path>
                    <path d="M92.0218978,32 L95,31.1666667 L94.9436913,31.1666667 C94.8485941,31.1211855 94.7546281,31.0655599 94.6621481,31 L93.0260688,31.1133333 L92,31.1866667 C92,31.1866667 92.0093848,31.4666667 92.0218978,32 Z" id="Path" fill="#925978"></path>
                    <polygon id="Path" fill="#925978" points="96 44.6145038 97.3409091 45 99.4480519 44.6755725 100 44"></polygon>
                    <polygon id="Path" fill="#925978" points="99 45.44 99.7083333 45.9 100 45.1"></polygon>
                    <path d="M92.4669177,42.8593453 C93.3894567,42.9543823 94.2404519,43 94.2404519,43 L99,42.8213305 L99,37.7995776 C98.4334238,37.2723947 97.7862134,36.8410734 97.0833782,36.5222809 C96.2549758,36.2333685 95.2759548,35.3476241 95.4604626,33.0021119 C95.4604626,32.8690602 95.4830554,32.7284055 95.5018827,32.5839493 C95.5336471,32.3229254 95.5474868,32.0599957 95.5433029,31.7970433 C95.5485064,30.6256046 95.0711118,29.5047023 94.22539,28.7026399 L94.1538462,28.6418163 L93.3781603,25 C93.3262415,25.0016893 93.2745755,25.0080503 93.2237762,25.0190074 C92.9526627,25.4295671 92.7305003,25.7108765 92.7305003,25.7108765 L92.1581495,26.9767687 L93.2350726,31.76283 L92,31.8046463 C92,31.8046463 92.5610543,41.6352693 92.429263,42.4183738 C92.4131697,42.5664364 92.4259621,42.7162478 92.4669177,42.8593453 L92.4669177,42.8593453 Z" id="Path" fill="#000000" opacity="0.1"></path>
                    <path d="M94.1601787,43 L99,42.8214436 L99,37.8066695 C98.4294112,37.2752606 97.7749214,36.8402025 97.0625399,36.5187843 C96.1703893,36.2110595 95.1097639,35.2384973 95.4543714,32.5791473 C95.6975483,31.1525669 95.2112117,29.6992571 94.1563497,28.7002955 L94.0835992,28.6395103 L93.2948309,25 C92.7939122,25.0438292 92.3376043,25.3035323 92.0465858,25.7104263 C91.9593527,25.8513504 91.8621056,25.9859254 91.7555839,26.1131279 C91.5514974,26.4393698 91.1341705,26.5632642 90.7830249,26.4018573 C90.2737715,26.1777121 88.0797703,25.2621359 87.5858328,26.1587168 C87.0918953,27.0552976 87,32.4347826 87,32.4347826 C87.7268021,33.0270944 88.229073,33.8469583 88.4243778,34.7598143 C88.7613274,36.2794428 89.3241863,36.3326298 89.3241863,36.3326298 L89.929164,40.7395526 C89.929164,40.7395526 90.4805361,41.6969185 90.070836,42.2249894" id="Path" fill="#444053"></path>
                    <path d="M92,25.9024641 L92.6858054,27.889117 L94,28 L93.9393939,27.9507187 L93.2822967,25 C92.8649975,25.0355343 92.4848622,25.2460876 92.2424242,25.5759754 C92.1697532,25.690229 92.0887398,25.7993351 92,25.9024641 L92,25.9024641 Z" id="Path" fill="#444053"></path>
                    <path d="M80,21.4158879 L80.0954064,22.3971963 L83.3215548,23 C83.3215548,23 83.5865724,22.7383178 84,22.3831776 C83.6466431,22.2803738 82.0565371,21.817757 81.2155477,21.4485981 C80.9081272,21.3224299 80.6996466,21.2149533 80.6925795,21.1401869 C80.6855124,21.0654206 80.7137809,21.0560748 80.7632509,21 L80,21.4158879 Z" id="Path" fill="#000000" opacity="0.1"></path>
                    <path d="M75.9660932,25.9986927 C75.9660932,25.9986927 80.0254485,29.1668341 82.5419347,29.6793869 C82.5419347,29.6793869 86.0752227,30.7569585 87.4728344,32 L89,25.990621 L88.0931228,25.3327776 C88.0931228,25.3327776 86.9821,26.0390512 86.0241863,25.8049719 C85.0662727,25.5708927 84.0141381,25.4336738 84.0141381,25.4336738 C83.1771987,25.1171199 82.3156538,24.8740982 81.4387637,24.707221 C80.7556614,24.6507191 81.0461762,23.7386173 81.713575,23.2543154 C81.8050517,23.1920482 81.900837,23.136744 82.0001639,23.0888456 C82.2592308,23.4695526 82.7576164,23.5849618 83.1504455,23.3552116 C83.4082173,23.1853987 83.6342641,22.969423 83.8178443,22.7175475 L83.8178443,22.7175475 C84.100643,22.3484559 84.3527853,21.9555976 84.5716124,21.5431155 C84.5716124,21.5431155 82.4555655,21.0789929 81.399505,20.7359457 C81.0579538,20.6269778 80.8263271,20.5341533 80.8184754,20.4736155 C80.7870684,20.2233929 82.7068215,19.4364023 82.7068215,19.4364023 C82.7068215,19.4364023 81.0618797,18.6292326 80.3944808,19.2103948 C80.3944808,19.2103948 80.8224013,19.5453703 80.4769242,19.872274 C80.1314472,20.1991778 75.9150568,23.5247173 75.9150568,23.5247173 C75.9150568,23.5247173 73.8225652,24.5780739 75.9660932,25.9986927 Z" id="Path" fill="#444053"></path>
                    <path d="M79,23.5684539 L80.8086957,23.8282786 C80.8823746,23.7793919 80.9595238,23.7359719 81.0395257,23.6983663 C81.2481884,23.997264 81.6496079,24.0878731 81.9660079,23.9074935 C82.1736276,23.7741713 82.3556945,23.6046062 82.5035573,23.4068557 L82.5035573,23.4068557 C82.6861832,23.1606118 82.8520399,22.9023142 83,22.6337188 C83,22.6337188 81.2924901,22.2661619 80.4450593,22 L79,23.5684539 Z" id="Path" fill="#000000" opacity="0.1"></path>
                    <path d="M79,23.1952464 L80.9288538,23.579525 C81.1375165,23.996186 81.5389359,24.1224944 81.855336,23.8710466 C82.4086957,23.4293472 83,21.883399 83,21.883399 C83,21.883399 81.2956522,21.3754446 80.4450593,21 L79,23.1952464 Z" id="Path" fill="#444053"></path>
                    <path d="M122.777246,57 L119,59.4 C119,59.4 120.708134,60.140625 122.300904,61 C123.692717,60.209375 125.00638,59.48125 126,58.8125 C124.675173,58.434375 122.777246,57 122.777246,57 Z" id="Path" fill="#000000" opacity="0.1"></path>
                    <path d="M100.076045,76 C100.899801,75.8886533 101.70964,75.6790695 102.490787,75.3750731 C102.490787,75.3750731 103.097718,75.2311293 104,74.9046226 C103.974035,74.5535401 103.954561,74.1813926 103.951316,73.7425395 C103.892476,72.4841027 103.741624,71.23268 103.500174,70 L100.160431,70.6565243 L100.072799,74.6904623 C99.9746473,75.1206656 99.9757618,75.5703721 100.076045,76 L100.076045,76 Z" id="Path" fill="#000000" opacity="0.1"></path>
                    <path d="M94.3017178,58.9693296 C95.0819447,60.135873 97.2013112,65.0756338 97.2013112,65.0756338 C97.6778292,65.953976 98.2169138,66.7959661 98.8142804,67.5949117 C99.6582759,68.6740594 100.243446,71.0907424 100.884883,73.0248487 C101.526319,74.958955 100.693577,74.5941727 100.787354,75.6125233 C100.881132,76.630874 104.500935,75.3199375 104.500935,75.3199375 C104.500935,75.3199375 111.913091,73.6670176 114.174999,69.0882394 C116.436906,64.5094612 125.480787,60.3486627 127.303817,57.7685877 C129.126848,55.1885127 126.782416,56.2486613 126.876193,54.8579287 C126.96997,53.4671961 125.919665,52.2892531 125.919665,52.2892531 C125.919665,52.2892531 122.509923,51.3165003 121.954762,50.6363332 C121.3996,49.9561662 118.676308,48.2576484 118.676308,48.2576484 C118.676308,48.2576484 116.110562,47.1177037 115.784217,46.7377221 C115.457872,46.3577405 112.408235,45.1266001 111.481715,44.8910115 C110.555196,44.6554229 109.636178,43.3140879 109.636178,43.3140879 C109.636178,43.3140879 109.05851,43.3900842 108.207013,42.5541247 C107.355515,41.7181652 103.788227,41 103.788227,41 C97.685202,45.5293806 93.4727266,44.8834119 93.4727266,44.8834119 L93.3751983,45.7421703 C90.1380066,50.0169632 93.528993,57.8065859 94.3017178,58.9693296 Z" id="Path" fill="#FF6484"></path>
                    <path d="M94,44.8250148 C94,44.8250148 99.0432277,46.2440708 104,41 C98.139049,44.6533795 94.0936599,44.1323439 94.0936599,44.1323439 L94,44.8250148 Z" id="Path" fill="#000000" opacity="0.1"></path>
                    <path d="M103,48.0011327 C103,48.0011327 109.589406,58.6010698 109.984002,58.990344 C110.378598,59.3796182 103.345708,47.8687795 103,48.0011327 Z" id="Path" fill="#000000" opacity="0.1"></path>
                    <path d="M100,49 C100,49 104.083059,56.0573489 103.998711,57 C103.998711,57.0208214 100.04686,50.2382534 100,49 Z" id="Path" fill="#000000" opacity="0.1"></path>
                    <path d="M96.6087377,50 C96.6087377,50 97.811244,54.4710186 96,57 L96.6087377,50 Z" id="Path" fill="#000000" opacity="0.1"></path>
                    <path d="M95,50 C95,50 94.8730159,53.3169907 94,54 L95,50 Z" id="Path" fill="#000000" opacity="0.1"></path>
                    <polygon id="Path" fill="#000000" opacity="0.1" points="106 47 113 49.6736566 110.43804 50"></polygon>
                    <path d="M94.3732836,18.2445354 C94.7053821,18.4352031 94.9802222,18.7462926 95.3733963,18.7897782 C95.6578538,18.79722 95.9391577,18.7358824 96.186465,18.6124907 C96.8468448,18.3616121 97.5950207,18.1675993 98.2783039,18.3649571 C99.251696,18.6492862 99.7861074,19.6293853 100.755682,19.9204044 C101.239168,20.0634216 101.770053,20.0120029 102.206227,19.7799124 C102.58849,19.5728489 102.862654,19.2425036 102.969672,18.8600242 C103.099213,18.1867334 102.808017,17.5041378 102.206227,17.0704236 C101.610054,16.6498354 100.90236,16.3679465 100.148744,16.2508868 C98.2019594,15.8728964 96.1788306,16 94.1900568,16.1304651 C94.0264494,16.1272423 93.8650949,16.1643297 93.7243555,16.2375066 C93.4227947,16.4348645 92.9074695,17.4283437 93.0143518,17.7628485 C93.1746752,18.2110849 94.3198424,17.86989 94.3732836,18.2445354 Z" id="Path" fill="#000000" opacity="0.1"></path>
                    <path d="M94.3701769,18.2445354 C94.7022359,18.4352031 94.9770433,18.7462926 95.3739874,18.7897782 C95.6583477,18.7967049 95.9394621,18.7354013 96.1869595,18.6124907 C96.8472607,18.3616121 97.5953476,18.1675993 98.2747327,18.3649571 C99.2480091,18.6492862 99.7823569,19.6293853 100.755633,19.9204044 C101.239062,20.0634216 101.769883,20.0120029 102.206006,19.7799124 C102.589658,19.5742083 102.864272,19.2432816 102.96936,18.8600242 C103.099702,18.1866651 102.808392,17.5037195 102.206006,17.0704236 C101.608899,16.6492017 100.899868,16.36727 100.14495,16.2508868 C98.1983973,15.8728964 96.1755091,16 94.1907887,16.1304651 C94.0272007,16.1272423 93.8658655,16.1643297 93.7251428,16.2375066 C93.4236179,16.4348645 92.9045372,17.4283437 93.0152235,17.7628485 C93.1602608,18.2043948 94.3167421,17.86989 94.3701769,18.2445354 Z" id="Path" fill="#F86D70"></path>
                    <path d="M118,21.5261707 L118.66129,24 L119.521764,23.5207186 L124.182666,20.9141653 C124.182666,20.9141653 127.712203,20.7961883 127.987077,18.1675143 C128.261951,15.5388403 124.063156,18.1417069 123.84007,18.3444798 C123.616984,18.5472527 123.107073,18.89381 123.107073,18.89381 L118.764866,21.1316853 L118,21.5261707 Z" id="Path" fill="#EFB7B9"></path>
                    <path d="M118,20.4125964 L118.86911,23 L120,22.4987147 C119.748691,21.3419023 119.361257,20.2506427 119.005236,20 L118,20.4125964 Z" id="Path" fill="#000000" opacity="0.1"></path>
                    <path d="M97,37.6073186 L97.8317457,43 L102.766305,41.8444254 C102.647484,41.4322705 101.183192,36.2206291 102.242095,34.9340895 C103.300998,33.6475498 102.941041,29.8341536 102.941041,29.8341536 C102.941041,29.8341536 101.025929,27.4035951 100.641509,26.818104 C100.257088,26.2326129 97.7688406,25.7703831 97.7688406,25.7703831 C97.6669142,25.5276492 97.6053621,25.266714 97.5871146,25 C97.5064439,25.1836376 97.443203,25.3759705 97.3983992,25.5739354 C97.3983992,26.5600257 97.7478722,27.2341108 98.7159124,27.7310079 L98.9815119,27.8581211 C99.1317853,27.9236037 99.2960376,27.9852343 99.4707741,28.046865 L99.5511529,28.0738284 C101.141255,28.5938369 101.483739,29.6415579 101.483739,29.6415579 C102.041943,30.448503 102.300587,31.4593616 102.207148,32.4688637 C102.028917,34.1560026 97,37.6073186 97,37.6073186 Z" id="Path" fill="#000000" opacity="0.1"></path>
                    <path d="M97,36.7704894 L97.8658723,42 L103.646843,40.7598589 C103.646843,40.7598589 103.472213,38.783851 103.068382,37.9807476 C102.664551,37.1776442 102.74459,34.0548793 102.74459,34.0548793 C105.203958,31.3355338 103.912426,29.1204625 103.912426,29.1204625 C103.912426,29.1204625 111.13773,27.9214105 111.261426,27.6972886 C111.385122,27.4731667 113.808109,26.1359062 113.808109,26.1359062 C113.808109,26.1359062 116.427554,25.4485991 116.780452,25.0638565 C116.912774,24.9189124 117.056345,24.7852448 117.20975,24.6641725 C117.254815,24.6296084 117.302231,24.5984006 117.351636,24.5707884 L117.544457,26.2853207 L117.617219,26.2853207 C118.039577,26.2393249 118.441901,26.0766754 118.781417,25.8146648 C119.378069,25.3440088 118.624978,20.2116178 118.053793,20.0211142 C117.943909,19.9929619 117.828971,19.9929619 117.719086,20.0211142 C117.263014,20.1652093 116.839006,20.4000148 116.471212,20.7121566 L116.372982,20.7943346 L116.336601,20.8242176 C116.336601,20.8242176 113.062294,22.1428013 112.411071,22.7479304 C111.759848,23.3530595 106.67012,24.12628 106.67012,24.12628 C106.67012,24.12628 104.389019,24.6791139 104.094332,24.3429311 C103.799644,24.0067483 100.317964,23.461385 100.026915,23.9693946 C99.7358653,24.4774042 98.9354792,24.4026969 98.9354792,24.4026969 C98.3606564,23.7265959 97.9641015,23.9880715 97.7203475,24.3765494 C97.5818114,24.6080318 97.4787414,24.8599962 97.4147455,25.1236223 C97.4147455,26.1657891 97.858596,26.8456254 99.0628133,27.3386936 C99.2410812,27.4134009 99.4266252,27.4806374 99.6558267,27.547874 C101.311171,28.0521482 101.667706,29.0681674 101.667706,29.0681674 C102.248383,29.8523534 102.517537,30.8335924 102.420797,31.8136605 C102.235253,33.4086612 97,36.7704894 97,36.7704894 Z" id="Path" fill="#444053"></path>
                    <path d="M117.627003,20.0082135 C117.701154,19.9972622 117.777116,19.9972622 117.851266,20.0082135 C118.550438,20.1838101 119.46068,25.1148497 118.730727,25.5663839 C118.370555,25.7892771 117.949688,25.938028 117.503879,26 L117.398343,26 L117.165286,24.3551256 C117.105571,24.381616 117.04826,24.4115559 116.993791,24.4447157 L116.993791,24.3766272 C117.363466,23.0995824 116.997508,21.7548671 116,20.7249344 L117.627003,20.0082135 Z" id="Path" fill="#000000" opacity="0.1"></path>
                    <path d="M118.027218,24.3657123 L118.255968,26 C118.794038,25.9703127 119.309968,25.811943 119.740687,25.5442509 C120.448517,25.0956229 119.555097,20.2034416 118.877478,20.021854 C118.333657,19.882993 117.379812,20.4419977 117,20.6805539 C118.023462,21.7082932 118.403701,23.0724037 118.027218,24.3657123 L118.027218,24.3657123 Z" id="Path" fill="#444053"></path>
                    <path d="M100,28 L101,27.1876574 L98.3684211,25 C98.2014077,25.2341454 98.0771507,25.4890085 98,25.7556675 C98,26.813602 98.5307018,27.5012594 100,28 Z" id="Path" fill="#444053"></path>
                    <path d="M94.3210795,18.5221349 C94.6531505,18.7564789 94.927968,19.1388296 95.3211096,19.1922765 C95.6055437,19.201423 95.8868243,19.1260348 96.1341113,18.9743777 C96.7944365,18.6660303 97.5425507,18.427575 98.2257774,18.6701416 C99.1990892,19.019602 99.752541,20.2242123 100.702951,20.5818953 C101.186397,20.7576734 101.717239,20.6944762 102.153377,20.4092207 C102.535607,20.1547252 102.809749,19.7487077 102.916759,19.2786137 C102.95168,19.1142237 102.965803,18.9455023 102.958745,18.7770354 C103.013752,19.0479199 103.013752,19.3284105 102.958745,19.599295 C102.809992,20.2801319 102.310926,20.8080903 101.676263,20.9560234 C101.368323,21.0292431 101.047685,21.0107666 100.748754,20.9025765 C99.7754425,20.5448936 99.2410752,19.3402832 98.2715803,18.9908229 C97.5883536,18.7482563 96.8402394,18.9908229 96.1799142,19.2950589 C95.9326272,19.446716 95.6513466,19.5221042 95.3669125,19.5129577 C94.9852216,19.4595109 94.6951365,19.0771601 94.3630655,18.8428161 C94.3096287,18.3823507 93.1569222,18.8017031 93.0118796,18.2507892 C92.9960401,18.1680633 92.9960401,18.0827259 93.0118796,18 C93.2294435,18.4357976 94.2600089,18.0904486 94.3210795,18.5221349 Z" id="Path" fill="#000000" opacity="0.1"></path>
                    <path d="M97.7562724,30 C97.7562724,30 96.8458781,31.4989474 98,32 C98,32 96.7383513,30.0210526 96,30.0631579" id="Path" fill="#000000" opacity="0.1"></path>
                    <path d="M126.599357,17 C126.599357,17 123.636498,19.5564162 125.77614,19.9655877 C127.915781,20.3747591 126.599357,17 126.599357,17 Z" id="Path" fill="#EFB7B9"></path>
                    <polygon id="Path" fill="#FFFFFF" points="114 19 114.600638 34 132 19"></polygon>
                    <polygon id="Path" fill="#000000" opacity="0.03" points="114 19 114.600638 34 132 19"></polygon>
                    <ellipse id="Oval" fill="#674B7C" cx="314.5" cy="257" rx="12.5" ry="2"></ellipse>
                    <ellipse id="Oval" fill="#3F3D56" cx="315.5" cy="255" rx="1.5" ry="2"></ellipse>
                    <ellipse id="Oval" fill="#3F3D56" cx="315.5" cy="253" rx="1.5" ry="2"></ellipse>
                    <ellipse id="Oval" fill="#3F3D56" cx="315.5" cy="250" rx="1.5" ry="2"></ellipse>
                    <ellipse id="Oval" fill="#3F3D56" cx="315.5" cy="249" rx="1.5" ry="2"></ellipse>
                    <ellipse id="Oval" fill="#3F3D56" cx="315.5" cy="246" rx="1.5" ry="2"></ellipse>
                    <ellipse id="Oval" fill="#3F3D56" cx="315.5" cy="244" rx="1.5" ry="2"></ellipse>
                    <ellipse id="Oval" fill="#3F3D56" cx="315.5" cy="242" rx="1.5" ry="2"></ellipse>
                    <path d="M319.501407,225.199329 C319.698362,224.945859 319.879243,224.680498 320.043007,224.404781 L316.211006,223.779442 L320.358321,223.808869 C321.164767,222.074829 321.213092,220.087487 320.491866,218.31692 L314.92749,221.178766 L320.061555,217.437766 C318.745446,215.202549 316.283425,213.880292 313.676416,214.008553 C311.069408,214.136814 308.751469,215.69424 307.664952,218.047663 C306.578435,220.401086 306.904239,223.15867 308.50991,225.199329 C308.200787,225.591431 307.933504,226.014264 307.71235,226.461043 L312.694321,229.035969 L307.382197,227.266627 C306.623032,229.485417 307.04134,231.934111 308.495072,233.78119 C306.241645,236.624075 306.569657,240.706838 309.24858,243.160073 C311.927502,245.613309 316.057849,245.613309 318.736771,243.160073 C321.415693,240.706838 321.743706,236.624075 319.490279,233.78119 C321.483357,231.264675 321.483357,227.723202 319.490279,225.206686 L319.501407,225.199329 Z" id="Path" fill="#674B7C"></path>
                    <path d="M307.01125,230.098492 C307.006546,231.592006 307.529724,233.043621 308.496638,234.219871 C306.24085,236.951592 306.569207,240.87471 309.250935,243.232019 C311.932663,245.589327 316.067337,245.589327 318.749065,243.232019 C321.430793,240.87471 321.75915,236.951592 319.503362,234.219871 C320.450297,233.085255 307.01125,229.349151 307.01125,230.098492 Z" id="Path" fill="#000000" opacity="0.1"></path>
                </g>
            </g>
        </g>
    </g>
</svg>