<?xml version="1.0" encoding="UTF-8"?>
<svg width="30px" height="30px" viewBox="0 0 30 30" version="1.1" xmlns="http://www.w3.org/2000/svg" xmlns:xlink="http://www.w3.org/1999/xlink">
    <title>shipment-international</title>
    <g id="playground-v5" stroke="none" stroke-width="1" fill="none" fill-rule="evenodd" stroke-linecap="round" stroke-linejoin="round">
        <g id="main" transform="translate(-663.000000, -2158.000000)" stroke="#674B7C" stroke-width="1.5">
            <g id="feat" transform="translate(250.000000, 2143.000000)">
                <g id="Group-8" transform="translate(400.000000, 2.000000)">
                    <g id="shipment-international" transform="translate(14.000000, 14.000000)">
                        <path d="M8.48811765,26.0441176 L7.51470588,26.0441176 C6.49135473,26.0441176 5.66176471,25.2145276 5.66176471,24.1911765 L5.66176471,16.7794118 C5.66176471,15.7560606 6.49135473,14.9264706 7.51470588,14.9264706 L18.6323529,14.9264706 C19.6557041,14.9264706 20.4852941,15.7560606 20.4852941,16.7794118 L20.4852941,25.5808824" id="Path" fill="#FDF06F"></path>
                        <path d="M20.9485294,16.7794118 L24.1911765,16.7794118 C26.2378788,16.7794118 27.8970588,18.4385918 27.8970588,20.4852941 L27.8970588,24.1911765 C27.8970588,25.2145276 27.0674688,26.0441176 26.0441176,26.0441176 L23.2177647,26.0441176 L20.9485294,26.0441176" id="Path" fill="#FDF06F"></path>
                        <circle id="Oval" fill="#FDF06F" cx="20.9485294" cy="25.5808824" r="2.31617647"></circle>
                        <circle id="Oval" fill="#FDF06F" cx="10.7573529" cy="25.5808824" r="2.31617647"></circle>
                        <line x1="18.6792941" y1="26.0441176" x2="13.0265882" y2="26.0441176" id="Path"></line>
                        <line x1="27.8970588" y1="20.4852941" x2="24.1911765" y2="20.4852941" id="Path"></line>
                        <path d="M1.34688235,16.3359412 C-0.772354871,12.2410733 -0.144124417,7.26306705 2.9260175,3.82310516 C5.99615942,0.383143266 10.8709943,-0.804798301 15.1795193,0.837066724 C19.4880444,2.47893175 22.3360105,6.60982861 22.3382353,11.2205882" id="Path"></path>
                        <path d="M11.2205882,0.102941176 C8.15347605,2.97296428 6.46643898,7.02185326 6.58823529,11.2205882" id="Path"></path>
                        <path d="M11.2205882,0.102941176 C14.2877004,2.97296428 15.9747375,7.02185326 15.8529412,11.2205882" id="Path"></path>
                        <line x1="0.736647059" y1="7.51470588" x2="21.7008235" y2="7.51470588" id="Path"></line>
                    </g>
                </g>
            </g>
        </g>
    </g>
</svg>