<?xml version="1.0" encoding="UTF-8"?>
<svg width="24px" height="24px" viewBox="0 0 24 24" version="1.1" xmlns="http://www.w3.org/2000/svg" xmlns:xlink="http://www.w3.org/1999/xlink">
    <title>pin-location-1</title>
    <g id="playground-v5" stroke="none" stroke-width="1" fill="none" fill-rule="evenodd" stroke-linecap="round" stroke-linejoin="round">
        <g id="main" transform="translate(-918.000000, -2328.000000)" stroke="#674B7C" stroke-width="1.5">
            <g id="feat" transform="translate(250.000000, 2143.000000)">
                <g id="Group-8" transform="translate(400.000000, 2.000000)">
                    <g id="Group-24" transform="translate(0.000000, 167.000000)">
                        <g id="Group-21" transform="translate(252.000000, 0.000000)">
                            <g id="pin-location-1" transform="translate(17.000000, 16.000000)">
                                <circle id="Oval" fill="#FDF06F" cx="11" cy="7.5" r="3"></circle>
                                <path d="M11,0.75 C14.7279221,0.75 17.75,3.77207794 17.75,7.5 C17.75,10.751 12.618,18.027 11.304,19.837 C11.2329814,19.9338302 11.1200822,19.9910359 11,19.9910359 C10.8799178,19.9910359 10.7670186,19.9338302 10.696,19.837 C9.382,18.027 4.25,10.751 4.25,7.5 C4.25,3.77207794 7.27207794,0.75 11,0.75 Z" id="Path"></path>
                                <path d="M16.979,17.784 C19.711,18.325 21.5,19.228 21.5,20.25 C21.5,21.907 16.8,23.25 11,23.25 C5.2,23.25 0.5,21.907 0.5,20.25 C0.5,19.23 2.281,18.329 5,17.787" id="Path"></path>
                            </g>
                        </g>
                    </g>
                </g>
            </g>
        </g>
    </g>
</svg>