<?xml version="1.0" encoding="UTF-8"?>
<svg width="36px" height="37px" viewBox="0 0 36 37" version="1.1" xmlns="http://www.w3.org/2000/svg" xmlns:xlink="http://www.w3.org/1999/xlink">
    <title>delivery-icon</title>
    <g id="playground-v5" stroke="none" stroke-width="1" fill="none" fill-rule="evenodd">
        <g id="main" transform="translate(-702.000000, -721.000000)" fill="#FFFFFF" fill-rule="nonzero">
            <g id="bg-sepia" transform="translate(0.000000, 624.000000)">
                <g id="Section-2" transform="translate(250.000000, 80.000000)">
                    <g id="Group-14-Copy" transform="translate(434.000000, 0.000000)">
                        <g id="delivery-icon" transform="translate(18.000000, 17.000000)">
                            <path d="M19.6875,10.500006 C22.5869949,10.500006 24.9375,8.14949494 24.9375,5.25 C24.9371171,5.13822745 24.9306073,5.02655992 24.918,4.9155 C24.9069707,4.80960109 24.9412951,4.70398353 25.0124735,4.6248011 C25.0836519,4.54561868 25.1850286,4.50027558 25.2915,4.5 L26.4375,4.5 C27.2659271,4.5 27.9375,3.82842712 27.9375,3 C27.9375,2.17157288 27.2659271,1.5 26.4375,1.5 L23.5005,1.5 C23.4077039,1.49873929 23.3185862,1.46351914 23.25,1.401 C21.5250866,-0.19905105 18.9462978,-0.456151832 16.9394327,0.771847362 C14.9325676,1.99984656 13.9877349,4.41304857 14.6273279,6.67720634 C15.2669209,8.94136412 17.3347405,10.5035339 19.6875,10.500006 L19.6875,10.500006 Z M19.6875,7.49999995 C18.4448593,7.49999995 17.4375,6.49264069 17.4375,5.25 C17.4386147,5.09853907 17.4562185,4.9476498 17.49,4.8 C17.5250526,4.62810202 17.6745991,4.50347994 17.85,4.49999995 L21.513,4.49999995 C21.6883905,4.49991229 21.8404141,4.62140653 21.879,4.7925 C21.9133268,4.94259578 21.930934,5.09603004 21.9315,5.25 C21.9315,6.49030131 20.9277969,7.49669253 19.6875,7.49999995 Z" id="Shape"></path>
                            <rect id="Rectangle" x="0.1875" y="11.25" width="12" height="10.5" rx="1"></rect>
                            <path d="M20.4375,10.8749893 C17.7464824,10.8783059 15.5658059,13.0589824 15.5625,15.75 L15.5625,20.25 C15.5625,21.2855339 16.4019661,22.125 17.4375,22.125 L21.0645,22.125 C21.226242,22.1249418 21.3699488,22.2281933 21.4215,22.3815 L23.1585,27.6 C23.4145041,28.3650045 24.1307969,28.8807836 24.9375,28.8810018 C25.1413461,28.8812823 25.3439184,28.8488707 25.5375,28.785 C26.5196414,28.4565132 27.0499895,27.3944744 26.7225,26.412 L24.4725,19.662 C24.216889,18.896706 23.500353,18.3807518 22.6935,18.381 L19.6935,18.381 C19.4863932,18.381 19.3185,18.2131068 19.3185,18.006 L19.3185,15.75 C19.3186218,15.3569063 19.5239141,14.9923846 19.86,14.7885 C19.9754287,14.7180192 20.1198664,14.7151534 20.238,14.781 L26.283,18.1395 C27.1884708,18.6423552 28.3301447,18.3159708 28.8329999,17.4105 C29.3358552,16.5050291 29.0094708,15.3633553 28.104,14.8605 L21.354,11.1105 C21.073634,10.9549961 20.7581016,10.8739182 20.4375,10.8749893 Z" id="Path"></path>
                            <circle id="Oval" cx="11.4375" cy="32.25" r="3.75"></circle>
                            <path d="M29.4375,36 C31.0008037,36.2164106 32.5053489,35.3205365 33.06,33.843 C33.0903053,33.7304503 33.0665526,33.6102079 32.9957274,33.5176355 C32.9249022,33.4250632 32.8150582,33.3706875 32.6985,33.3705 L26.1765,33.3705 C26.0599418,33.3706875 25.9500978,33.4250632 25.8792726,33.5176355 C25.8084474,33.6102079 25.7846947,33.7304503 25.815,33.843 C26.3696511,35.3205365 27.8741963,36.2164106 29.4375,36 L29.4375,36 Z" id="Path"></path>
                            <path d="M8.8125,23.25 C5.70761125,23.2541316 3.19163159,25.7701113 3.1875,28.875 L3.1875,30.75 C3.1875,31.5784271 3.85907288,32.25 4.6875,32.25 C5.51592712,32.25 6.1875,31.5784271 6.1875,30.75 L6.1875,28.875 C6.18915324,27.4259379 7.36343788,26.2516532 8.8125,26.25 L14.4375,26.25 C15.6801407,26.25 16.6875,27.2573593 16.6875,28.5 L16.6875,29.25 C16.6910618,30.3067032 17.2522181,31.2830238 18.1635,31.818 C18.2216314,31.8524072 18.2879491,31.870541 18.3555,31.8705 L34.7055,31.8705 C35.3213033,31.8647451 35.8177047,31.3643297 35.8185,30.7485 C35.8472045,28.4687593 34.223886,26.5022539 31.98,26.0985 C31.8121467,26.0571785 31.6939982,25.906864 31.6935,25.734 L31.6935,23.85 C31.693764,23.7201104 31.7612248,23.5996073 31.8718151,23.5314812 C31.9824053,23.4633552 32.1203743,23.4573091 32.2365,23.5155 L33.6075,24.201 C33.8399899,24.3175006 34.1162363,24.3052562 34.3375071,24.1686429 C34.5587779,24.0320295 34.6934913,23.7905461 34.6935,23.5305 L34.6935,20.7135 C34.6934913,20.4534539 34.5587779,20.2119705 34.3375071,20.0753571 C34.1162363,19.9387438 33.8399899,19.9264994 33.6075,20.043 L32.2365,20.7285 C32.1203743,20.7866909 31.9824053,20.7806448 31.8718151,20.7125188 C31.7612248,20.6443927 31.693764,20.5238896 31.6935,20.394 L31.6935,19.5 C31.6935,18.6715729 31.0219271,18 30.1935,18 C29.3650729,18 28.6935,18.6715729 28.6935,19.5 L28.6935,28.875 C28.6935,29.0821068 28.5256068,29.25 28.3185,29.25 L20.0685,29.25 C19.8613932,29.25 19.6935,29.0821068 19.6935,28.875 L19.6935,28.5 C19.6914415,27.8460883 19.5630905,27.1987303 19.3155,26.5935 C19.23916,26.4025572 19.3308332,26.1857532 19.521,26.1075 C20.0770847,25.8861178 20.4424063,25.3485308 20.4435,24.75 C20.4435,23.9215729 19.7719271,23.25 18.9435,23.25 L8.8125,23.25 Z" id="Path"></path>
                        </g>
                    </g>
                </g>
            </g>
        </g>
    </g>
</svg>