<?xml version="1.0" encoding="UTF-8"?>
<svg width="28px" height="28px" viewBox="0 0 28 28" version="1.1" xmlns="http://www.w3.org/2000/svg" xmlns:xlink="http://www.w3.org/1999/xlink">
    <title>cash-payment-bag</title>
    <g id="playground-v5" stroke="none" stroke-width="1" fill="none" fill-rule="evenodd" stroke-linecap="round" stroke-linejoin="round">
        <g id="main" transform="translate(-916.000000, -2159.000000)" stroke="#674B7C" stroke-width="1.5">
            <g id="feat" transform="translate(250.000000, 2143.000000)">
                <g id="Group-8" transform="translate(400.000000, 2.000000)">
                    <g id="Group-22" transform="translate(252.000000, 0.000000)">
                        <g id="cash-payment-bag" transform="translate(14.000000, 14.000000)">
                            <line x1="0.875" y1="16.625" x2="0.875" y2="27.125" id="Path"></line>
                            <path d="M0.875,25.375 L20.125,25.375 C20.125,23.4420034 18.5579966,21.875 16.625,21.875 L12.25,21.875 C12.25,19.9420034 10.6829966,18.375 8.75,18.375 L0.875,18.375" id="Path" fill="#FDF06F"></path>
                            <line x1="7.875" y1="21.875" x2="12.25" y2="21.875" id="Path"></line>
                            <path d="M23.6133333,21.0093333 C26.2045936,19.0790934 27.5162195,15.8743205 27.0218104,12.6812005 C26.5274012,9.48808044 24.3080018,6.83003655 21.2543333,5.77383333 L23.4161667,2.0755 C23.5612943,1.82804204 23.5612943,1.52145796 23.4161667,1.274 C23.2657247,1.02441339 22.9947457,0.872736107 22.7033333,0.874975008 L14.0466667,0.874975008 C13.7560843,0.873561481 13.4861827,1.02513186 13.3361667,1.274 C13.191039,1.52145796 13.191039,1.82804204 13.3361667,2.0755 L15.498,5.77383333 C11.9893254,6.98680558 9.63276402,10.2875832 9.625,14" id="Path"></path>
                            <path d="M15.9833333,16.1513333 C16.4961117,16.8248299 17.3051841,17.2058516 18.151,17.1721667 C19.4798333,17.1721667 20.5578333,16.3636667 20.5578333,15.3673333 C20.5578333,14.371 19.4798333,13.5636667 18.151,13.5636667 C16.8221667,13.5636667 15.75,12.7551667 15.75,11.7576667 C15.75,10.7601667 16.828,9.95283333 18.1556667,9.95283333 C19.0016044,9.91854767 19.8109405,10.2996936 20.3233333,10.9736667" id="Path"></path>
                            <line x1="18.1556667" y1="17.1721667" x2="18.1556667" y2="18.375" id="Path"></line>
                            <line x1="18.1556667" y1="8.75" x2="18.1556667" y2="9.95283333" id="Path"></line>
                        </g>
                    </g>
                </g>
            </g>
        </g>
    </g>
</svg>