<?xml version="1.0" encoding="UTF-8"?>
<svg width="27px" height="36px" viewBox="0 0 27 36" version="1.1" xmlns="http://www.w3.org/2000/svg" xmlns:xlink="http://www.w3.org/1999/xlink">
    <title>mailbox-icon</title>
    <g id="playground-v5" stroke="none" stroke-width="1" fill="none" fill-rule="evenodd">
        <g id="main" transform="translate(-1033.000000, -722.000000)" fill="#FFFFFF" fill-rule="nonzero">
            <g id="bg-sepia" transform="translate(0.000000, 624.000000)">
                <g id="Section-2" transform="translate(250.000000, 80.000000)">
                    <g id="Group-14-Copy-2" transform="translate(760.000000, 0.000000)">
                        <g id="mailbox-icon" transform="translate(23.000000, 18.000000)">
                            <path d="M24.75,7.5 L2.25,7.5 C1.07859053,7.43673583 0.0748004967,8.32877057 0,9.4995 L0,10.0005 C0.0748004967,11.1712294 1.07859053,12.0632642 2.25,12 L2.625,12 C2.72449168,11.9999866 2.81994415,12.039354 2.8905,12.1095 C2.96010008,12.1804176 2.99937119,12.2756366 3,12.375 L3,31.35 L2.3775,32.9085 C2.09806325,33.6014327 2.18082789,34.3878817 2.59839156,35.0074632 C3.01595522,35.6270447 3.71384572,35.9989328 4.461,36 L22.53,36 C23.2767723,36 23.9748011,35.6291502 24.3931882,35.0105865 C24.8115754,34.3920228 24.8957993,33.6061785 24.618,32.913 L24,31.35 L24,12.375 C24,12.1678932 24.1678932,12 24.375,12 L24.75,12 C25.9214095,12.0632642 26.9251995,11.1712294 27,10.0005 L27,9.4995 C26.9251995,8.32877057 25.9214095,7.43673583 24.75,7.5 L24.75,7.5 Z M20.2185,20.532 L13.8675,23.9445 C13.6415002,24.0809558 13.3584998,24.0809558 13.1325,23.9445 L6.783,20.532 C6.76239709,20.5204714 6.74973909,20.4986076 6.74999604,20.475 C6.76069966,19.7203924 7.37986267,19.1166582 8.1345,19.125 L18.8655,19.125 C19.6201373,19.1166582 20.2393003,19.7203924 20.249996,20.475 C20.249996,20.4981438 20.2380775,20.5196567 20.2185,20.532 L20.2185,20.532 Z M20.25,23.364 L20.25,27.9 C20.2393003,28.6546076 19.6201373,29.2583418 18.8655,29.25 L8.1345,29.25 C7.37986267,29.2583418 6.76069966,28.6546076 6.75,27.9 L6.75,23.364 C6.75062215,23.2817663 6.79605836,23.2064227 6.8685,23.1675 C6.94106187,23.126309 7.02993813,23.126309 7.1025,23.1675 L12.399,25.95 C13.0762577,26.3581609 13.9237423,26.3581609 14.601,25.95 L19.8975,23.1795 C19.9700619,23.138309 20.0589381,23.138309 20.1315,23.1795 C20.2003229,23.2162884 20.2451685,23.2861114 20.25,23.364 Z M19.5,15.375 L7.5,15.375 C6.87867966,15.375 6.375,14.8713203 6.375,14.25 C6.375,13.6286797 6.87867966,13.125 7.5,13.125 L19.5,13.125 C20.1213203,13.125 20.625,13.6286797 20.625,14.25 C20.625,14.8713203 20.1213203,15.375 19.5,15.375 Z" id="Shape"></path>
                            <path d="M6.3,5.2500019 L20.6895,5.2500019 C21.0182061,5.25046402 21.3089105,5.03683309 21.4066419,4.72299156 C21.5043733,4.40915002 21.3863544,4.06824124 21.1155,3.882 C19.2933348,2.64295708 17.1919038,1.8759889 15,1.65 L15,1.5 C15,0.671572875 14.3284271,0 13.5,0 C12.6715729,0 12,0.671572875 12,1.5 L12,1.65 C9.80694033,1.87391379 7.70390941,2.63935519 5.88,3.8775 C5.60584968,4.06172834 5.4844959,4.40362119 5.58114739,4.71946446 C5.67779889,5.03530773 5.96970024,5.25073999 6.3,5.2500019 Z" id="Path"></path>
                        </g>
                    </g>
                </g>
            </g>
        </g>
    </g>
</svg>