<?xml version="1.0" encoding="UTF-8"?>
<svg width="22px" height="24px" viewBox="0 0 22 24" version="1.1" xmlns="http://www.w3.org/2000/svg" xmlns:xlink="http://www.w3.org/1999/xlink">
    <title>shield-lock</title>
    <g id="playground-v5" stroke="none" stroke-width="1" fill="none" fill-rule="evenodd" stroke-linecap="round" stroke-linejoin="round">
        <g id="main" transform="translate(-667.000000, -2328.000000)" stroke="#674B7C" stroke-width="1.5">
            <g id="feat" transform="translate(250.000000, 2143.000000)">
                <g id="Group-8" transform="translate(400.000000, 2.000000)">
                    <g id="Group-24" transform="translate(0.000000, 167.000000)">
                        <g id="shield-lock" transform="translate(18.000000, 16.000000)">
                            <path d="M0.249966527,3.923 L0.249966527,11.537 C0.249966527,16.463494 3.28397966,20.8812285 7.882,22.65 L8.923,23.05 C9.616243,23.3166498 10.383757,23.3166498 11.077,23.05 L12.118,22.65 C16.7160203,20.8812285 19.7500335,16.463494 19.7500335,11.537 L19.7500335,3.923 C19.7539148,3.33774252 19.4141569,2.80462005 18.882,2.561 C16.0818378,1.33878919 13.0551439,0.72165986 10,0.75 C6.9448561,0.72165986 3.91816217,1.33878919 1.118,2.561 C0.585843147,2.80462005 0.246085217,3.33774252 0.249966527,3.923 Z" id="Path"></path>
                            <rect id="Rectangle" fill="#FDF06F" x="5.5" y="9.75" width="9" height="7.5" rx="1.5"></rect>
                            <path d="M10,5.25 L10,5.25 C8.34314575,5.25 7,6.59314575 7,8.25 L7,9.75 L13,9.75 L13,8.25 C13,6.59314575 11.6568542,5.25 10,5.25 Z" id="Path"></path>
                            <path d="M10,13.154 C10.2071068,13.154 10.375,13.3218932 10.375,13.529 C10.375,13.7361068 10.2071068,13.904 10,13.904 C9.79289322,13.904 9.625,13.7361068 9.625,13.529 C9.625,13.3218932 9.79289322,13.154 10,13.154" id="Path"></path>
                        </g>
                    </g>
                </g>
            </g>
        </g>
    </g>
</svg>