<?xml version="1.0" encoding="UTF-8"?>
<svg width="770px" height="274px" viewBox="0 0 770 274" version="1.1" xmlns="http://www.w3.org/2000/svg" xmlns:xlink="http://www.w3.org/1999/xlink">
    <title>Logo</title>
    <g id="playground-v5" stroke="none" stroke-width="1" fill="none" fill-rule="evenodd">
        <g id="main" transform="translate(-166.000000, 0.000000)" fill="#674B7C" fill-rule="nonzero">
            <g id="Logo" transform="translate(166.000000, 0.000000)">
                <path d="M668.34,264.6 C665,264.81 662.29,264.5 660.62,263.44 C659.44,262.69 658.2,261.19 659.04,258.3 C659.57,256.5 659.37,255.2 658.43,254.3 C654.05,250.3 634.86,254.69 628.1,257.3 L629.87,255.24 C630.87,254.82 654.03,246.91 659.97,252.37 C661.32,253.61 661.66,255.42 660.97,257.75 C660.28,260.08 661.21,260.85 661.97,261.31 C668.97,265.68 698.04,256.62 710.11,248.24 C716,244.1 719.39,244.15 722.22,245 C724.119671,245.605783 725.751728,246.849255 726.84,248.52 L726.84,248.52 C726.61,248.24 719.93,241.02 710.31,248.84 C703.46,254.38 682.73,263.64 668.34,264.6 Z" id="Path"></path>
                <path d="M736.63,186.93 C733.088291,187.249637 729.760009,188.762172 727.19,191.22 C725.549806,192.740343 724.489256,194.783669 724.19,197 C724.230773,193.864073 725.410798,190.850033 727.51,188.52 C710.834542,192.669525 696.144231,202.539743 686,216.41 C689.786667,210.596667 693.6,204.8 697.44,199.02 C691.025801,199.300563 684.680211,200.457977 678.58,202.46 C676.230616,203.20369 674.167154,204.652652 672.67,206.61 C671.669606,207.929466 671.056682,209.501598 670.9,211.15 C670.863803,208.986866 671.387408,206.851108 672.42,204.95 C654.01,213.67 647.27,229.37 644.82,237.2 C652.39,232.46 660.82,230.59 671.51,228.62 L670.25,229.28 C644.139995,236.97 628.13,257.34 628.139995,257.280132 C634.139995,251.45 636.38,251.28 636.38,251.28 C639.48,249.2 642.9,247.03 646.38,244.89 C658.47343,248.658459 671.341391,249.203098 683.71,246.47 C679.47,245.18 678.24,242.36 678.24,242.36 C679.97,244.78 683.84,245.26 686.5,245.29 C687.693918,245.299741 688.881884,245.120871 690.02,244.76 C697.434298,242.479801 704.387718,238.908303 710.56,234.21 C706.493333,233.43 702.423333,232.66 698.35,231.9 C712.43,230.27 723.11,226.38 731.27,221.51 C724.44,220.82 722.66,216.67 722.66,216.67 C723.58371,217.845731 724.870656,218.682597 726.32,219.05 C730.480497,220.26945 734.9749,219.348098 738.32,216.59 C754.27,203.7 756.7,187.5 756.680122,187.48 C750.049586,186.419477 743.308583,186.234561 736.63,186.93 Z" id="Path"></path>
                <path d="M110.05,264.79 C113.39,265 116.05,264.68 117.77,263.63 C118.95,262.88 120.18,261.38 119.34,258.49 C118.81,256.68 119.01,255.38 119.95,254.49 C124.33,250.49 143.52,254.86 150.28,257.49 L148.51,255.43 C147.51,255.01 124.34,247.12 118.41,252.58 C117.06,253.82 116.72,255.64 117.41,257.96 C118.1,260.28 117.17,261.07 116.41,261.53 C109.41,265.9 80.34,256.86 68.26,248.53 C62.37,244.4 58.98,244.45 56.15,245.3 C54.2540187,245.90781 52.625761,247.151078 51.54,248.82 L51.54,248.82 C51.77,248.54 58.44,241.31 68.07,249.13 C74.92,254.6 95.66,263.84 110.05,264.79 Z" id="Path"></path>
                <path d="M41.7,187.17 C45.2425032,187.479063 48.5731063,188.989125 51.14,191.45 C52.780844,192.965728 53.8417547,195.006213 54.14,197.22 C54.0986332,194.087174 52.9185256,191.076478 50.82,188.75 C67.5156323,192.879211 82.231478,202.739323 92.4,216.61 C88.6,210.81 84.78,205.016667 80.94,199.23 C87.3537199,199.507453 93.6992813,200.661497 99.8,202.66 C102.153476,203.395617 104.221487,204.841827 105.72,206.8 C106.722119,208.12229 107.335133,209.698119 107.49,211.35 C107.525778,209.182501 106.998604,207.042797 105.96,205.14 C119.306686,211.501393 129.342534,223.208066 133.59,237.37 C126.02,232.64 117.59,230.77 106.89,228.81 L108.15,229.47 C134.27,237.15 150.29,257.47 150.280005,257.47 C144.28,251.64 142.04,251.47 142.04,251.47 C138.94,249.39 135.51,247.22 132.04,245.08 C119.953128,248.861241 107.087609,249.416265 94.72,246.69 C98.95,245.4 100.19,242.58 100.19,242.58 C98.45,245 94.59,245.49 91.93,245.51 C90.7329909,245.528158 89.5409266,245.352556 88.4,244.99 C80.967421,242.728524 73.9933577,239.170397 67.8,234.48 C71.8733333,233.693333 75.9466667,232.92 80.02,232.16 C65.94,230.54 55.25,226.66 47.08,221.8 C53.91,221.1 55.69,216.95 55.69,216.95 C54.7601465,218.132983 53.4611815,218.970798 52,219.33 C47.8410676,220.550385 43.347702,219.632989 40,216.88 C24.06,204 21.61,187.8 21.6298793,187.779995 C28.2643659,186.698075 35.0121736,186.492985 41.7,187.17 L41.7,187.17 Z" id="Path"></path>
                <path d="M49.89,41.25 C53.0633333,64.31 56.2366667,87.3733333 59.41,110.44 C70.59,108.9 81.78,107.44 92.98,106.06 C91.6466667,95.26 90.3133333,84.46 88.98,73.66 C96.5,72.74 104.026667,71.8466667 111.56,70.98 L117.29,121.27 C83.6033333,125.09 49.9766667,129.646667 16.41,134.94 C15.4833333,129.02 14.5566667,123.1 13.63,117.18 C19.0166667,116.34 24.4066667,115.513333 29.8,114.7 C26.3533333,91.6733333 22.8966667,68.65 19.43,45.63 C13.8833333,46.4566667 8.33666667,47.3066667 2.79,48.18 L0,30.43 C21.54,27.05 43.11,23.95 64.71,21.13 C65.49,27.0433333 66.2533333,33 67,39 C61.3066667,39.7066667 55.6033333,40.4566667 49.89,41.25 Z" id="Path"></path>
                <path d="M213,39.8 C212.64,34.64 212.273333,29.4833333 211.9,24.33 C199.76,25.1966667 187.63,26.1533333 175.51,27.2 C176.176667,35.26 176.873333,43.3266667 177.6,51.4 C187.286667,50.56 196.98,49.78 206.68,49.06 C207.106667,55.02 207.546667,60.9466667 208,66.84 C198.373333,67.56 188.746667,68.3333333 179.12,69.16 C179.906667,78.3866667 180.696667,87.5966667 181.49,96.79 C193.283333,95.77 205.073333,94.8366667 216.86,93.99 C216.486667,88.79 216.113333,83.5866667 215.74,78.38 C223.073333,77.8466667 230.406667,77.3533333 237.74,76.9 C238.44,88.0866667 239.136667,99.2733333 239.83,110.46 C206.496667,112.54 173.206667,115.316667 139.96,118.79 C139.333333,112.83 138.71,106.873333 138.09,100.92 C142.676667,100.44 147.263333,99.9733333 151.85,99.52 C149.603333,76.3466667 147.336667,53.1733333 145.05,30 L130.89,31.44 C130.296667,25.4866667 129.666667,19.5333333 129,13.58 C163.706667,9.94666667 198.463333,7.04666667 233.27,4.88 C233.97,16.02 234.666667,27.16 235.36,38.3 C227.906667,38.7666667 220.453333,39.2666667 213,39.8 Z" id="Path"></path>
                <path d="M349,42.87 C348.86,34.6833333 348.723333,26.4966667 348.59,18.31 C342.503333,18.41 336.413333,18.5333333 330.32,18.68 C330.88,41.9533333 331.436667,65.2266667 331.99,88.5 C337.676667,88.3733333 343.37,88.2566667 349.07,88.15 L349.37,106.15 C328.15,106.51 306.933333,107.15 285.72,108.07 L284.94,90.07 C290.733333,89.8233333 296.526667,89.5933333 302.32,89.38 C301.48,66.12 300.636667,42.8533333 299.79,19.58 C293.83,19.8 287.873333,20.04 281.92,20.3 C282.266667,28.48 282.62,36.66 282.98,44.84 C276.386667,45.1266667 269.793333,45.44 263.2,45.78 C262.46,31.6266667 261.726667,17.4666667 261,3.3 C296.74,1.47333333 332.493333,0.403333333 368.26,0.09 C368.386667,14.27 368.51,28.45 368.63,42.63 C362.076667,42.6833333 355.533333,42.7633333 349,42.87 Z" id="Path"></path>
                <path d="M481,44.21 C481.3,36.03 481.603333,27.8466667 481.91,19.66 C475.823333,19.44 469.733333,19.2366667 463.64,19.05 C462.973333,42.33 462.286667,65.6033333 461.58,88.87 C467.266667,89.0366667 472.956667,89.2233333 478.65,89.43 L477.99,107.43 C456.783333,106.663333 435.563333,106.166667 414.33,105.94 C414.39,99.94 414.453333,93.94 414.52,87.94 C420.313333,88 426.106667,88.08 431.9,88.18 C432.3,64.9 432.703333,41.6233333 433.11,18.35 C427.15,18.25 421.186667,18.1666667 415.22,18.1 L415,42.66 C408.4,42.5933333 401.8,42.5533333 395.2,42.54 L395.31,0 C431.103333,0.08 466.86,0.92 502.58,2.52 C501.913333,16.68 501.276667,30.8466667 500.67,45.02 C494.13,44.72 487.573333,44.45 481,44.21 Z" id="Path"></path>
                <path d="M608.61,43.14 C609.056667,37.98 609.51,32.8266667 609.97,27.68 C597.85,26.6066667 585.723333,25.6233333 573.59,24.73 C572.996667,32.7966667 572.4,40.8866667 571.8,49 C581.5,49.72 591.196667,50.4933333 600.89,51.32 C600.39,57.24 599.883333,63.1633333 599.37,69.09 C589.75,68.2566667 580.123333,67.4866667 570.49,66.78 L568.49,94.44 C580.276667,95.3133333 592.066667,96.27 603.86,97.31 L605.24,81.71 C612.573333,82.3766667 619.906667,83.0433333 627.24,83.71 L623.97,117.18 C590.71,113.933333 557.403333,111.38 524.05,109.52 C524.383333,103.52 524.716667,97.52 525.05,91.52 C529.65,91.78 534.25,92.05 538.85,92.33 L543.14,22.62 C538.4,22.3266667 533.666667,22.05 528.94,21.79 C529.273333,15.79 529.606667,9.80666667 529.94,3.84 C564.753333,5.78666667 599.523333,8.45333333 634.25,11.84 C633.143333,22.9866667 632.06,34.1133333 631,45.22 C623.52,44.4933333 616.056667,43.8 608.61,43.14 Z" id="Path"></path>
                <path d="M764.9,57.3 C763.92,63.68 761.453333,68.7966667 757.5,72.65 C753.546667,76.5033333 748.046667,79.31 741,81.07 C745.666667,92.5033333 750.243333,103.943333 754.73,115.39 C759.623333,116.143333 764.513333,116.903333 769.4,117.67 C768.473333,123.59 767.536667,129.506667 766.59,135.42 C755.17,133.613333 743.74,131.886667 732.3,130.24 C726.013333,113.76 719.563333,97.3033333 712.95,80.87 C708.57,80.29 704.193333,79.72 699.82,79.16 L696.25,107.23 C701.003333,107.83 705.756667,108.446667 710.51,109.08 C709.71,115.02 708.916667,120.96 708.13,126.9 C688.43,124.3 668.72,121.92 649,119.76 C649.666667,113.8 650.313333,107.843333 650.94,101.89 C656.15,102.45 661.36,103.04 666.58,103.63 C669.246667,80.5033333 671.913333,57.3733333 674.58,34.24 C669.246667,33.6333333 663.883333,33.0366667 658.49,32.45 C659.156667,26.49 659.8,20.5333333 660.42,14.58 C682.88,17.0133333 705.306667,19.7466667 727.7,22.78 C740.7,24.55 750.57,28.48 757.18,34.45 C763.79,40.42 766.32,48.05 764.9,57.3 Z M733.11,53.86 C733.656667,49.86 732.656667,46.6733333 730.11,44.3 C727.54,41.92 723.8,40.39 718.88,39.74 C714.28,39.12 709.67,38.53 705.07,37.94 C704.023333,46.06 703,54.1833333 702,62.31 C705.686667,62.7766667 709.373333,63.2566667 713.06,63.75 C725.26,65.36 731.94,62.12 733.11,53.86 Z" id="Shape"></path>
                <path d="M252.13,194.54 L251.26,179.89 C240.226667,180.556667 229.2,181.29 218.18,182.09 C218.766667,190.216667 219.363333,198.34 219.97,206.46 C227.87,205.866667 235.77,205.323333 243.67,204.83 L244.81,222.77 C236.97,223.256667 229.13,223.793333 221.29,224.38 C221.956667,233.5 222.623333,242.623333 223.29,251.75 C228.81,251.336667 234.336667,250.95 239.87,250.59 C240.263333,256.59 240.66,262.566667 241.06,268.52 C221.32,269.853333 201.603333,271.423333 181.91,273.23 C181.35,267.23 180.796667,261.266667 180.25,255.34 C185.316667,254.86 190.386667,254.403333 195.46,253.97 C193.46,230.783333 191.46,207.59 189.46,184.39 C184.226667,184.843333 179,185.31 173.78,185.79 C173.22,179.79 172.666667,173.826667 172.12,167.9 C205.186667,164.82 238.296667,162.45 271.45,160.79 C271.996667,171.65 272.543333,182.516667 273.09,193.39 C266.11,193.743333 259.123333,194.126667 252.13,194.54 Z" id="Path"></path>
                <path d="M336.57,176.38 C337.103333,199.66 337.636667,222.936667 338.17,246.21 C348.69,245.97 359.216667,245.803333 369.75,245.71 C369.65,234.83 369.553333,223.95 369.46,213.07 C376.526667,213.01 383.603333,212.98 390.69,212.98 L390.69,263.59 C359.05,263.59 327.416667,264.256667 295.79,265.59 L295,247.61 C300.08,247.39 305.163333,247.193333 310.25,247.02 C309.43,223.753333 308.613333,200.486667 307.8,177.22 C302.56,177.4 297.31,177.6 292.08,177.82 C291.82,171.82 291.566667,165.836667 291.32,159.87 C311.68,159.023333 332.046667,158.433333 352.42,158.1 C352.52,164.1 352.616667,170.1 352.71,176.1 C347.343333,176.173333 341.963333,176.266667 336.57,176.38 Z" id="Path"></path>
                <path d="M455.07,176.68 L453.12,246.5 C458.613333,246.653333 464.1,246.826667 469.58,247.02 L469,265 C449,264.286667 429,263.85 409,263.69 L409.15,245.69 C414.523333,245.743333 419.893333,245.806667 425.26,245.88 C425.633333,222.613333 425.996667,199.336667 426.35,176.05 C420.823333,175.963333 415.286667,175.896667 409.74,175.85 C409.786667,169.85 409.84,163.85 409.9,157.85 C430.826667,158.03 451.76,158.486667 472.7,159.22 L472.07,177.22 C466.39,177.02 460.723333,176.84 455.07,176.68 Z" id="Path"></path>
                <path d="M536,179.14 C541.066667,186.1 546.086667,193.07 551.06,200.05 C556.393333,193.776667 561.75,187.526667 567.13,181.3 L557.27,180.57 L558.47,163.84 C574.896667,165.02 591.32,166.353333 607.74,167.84 C607.18,173.84 606.623333,179.803333 606.07,185.73 C600.99,185.256667 595.91,184.803333 590.83,184.37 C581.11,195.11 571.513333,205.91 562.04,216.77 C570.66,229.19 579.13,241.66 587.45,254.18 C592.523333,254.633333 597.593333,255.096667 602.66,255.57 C602.1,261.53 601.536667,267.493333 600.97,273.46 C582.303333,271.693333 563.596667,270.166667 544.85,268.88 C545.25,263.18 545.643333,257.483333 546.03,251.79 L556.73,252.55 C551.67,244.883333 546.556667,237.216667 541.39,229.55 C535.53,236.516667 529.733333,243.476667 524,250.43 C527.66,250.64 531.32,250.87 535,251.1 C534.64,256.8 534.276667,262.5 533.91,268.2 C517.643333,267.153333 501.37,266.286667 485.09,265.6 C485.35,259.6 485.603333,253.6 485.85,247.6 C491.083333,247.82 496.31,248.056667 501.53,248.31 C510.796667,236.636667 520.203333,225.016667 529.75,213.45 C521.596667,201.816667 513.32,190.2 504.92,178.6 C499.826667,178.353333 494.733333,178.12 489.64,177.9 C489.9,171.9 490.156667,165.9 490.41,159.9 C509.47,160.713333 528.516667,161.756667 547.55,163.03 C547.176667,168.61 546.803333,174.19 546.43,179.77 L536,179.14 Z" id="Path"></path>
            </g>
        </g>
    </g>
</svg>