<?xml version="1.0" encoding="UTF-8"?>
<svg width="211px" height="75px" viewBox="0 0 211 75" version="1.1" xmlns="http://www.w3.org/2000/svg" xmlns:xlink="http://www.w3.org/1999/xlink">
    <title>Logo</title>
    <g id="playground-v5" stroke="none" stroke-width="1" fill="none" fill-rule="evenodd">
        <g id="main" transform="translate(-320.000000, -5455.000000)" fill="#FFFFFF" fill-rule="nonzero">
            <g id="Logo" transform="translate(320.000000, 5455.000000)">
                <path d="M183.003443,71.9815629 C182.090136,72.044184 181.349099,71.9517434 180.892445,71.635656 C180.569779,71.4120093 180.230707,70.9647158 180.460401,70.1029304 C180.605327,69.5661782 180.550638,69.1785239 180.293599,68.9101478 C179.095908,67.7173653 173.848491,69.0264441 172,69.8047348 L172.483998,69.1904517 C172.757444,69.0652096 179.09044,66.7064821 180.714705,68.3346303 C181.083857,68.7043928 181.176828,69.244127 180.988151,69.9389228 C180.799473,70.6337186 181.053778,70.8633293 181.261596,71.0004993 C183.175714,72.3036142 191.124772,69.6019617 194.425258,67.1030823 C196.035852,65.8685523 196.962832,65.8834621 197.736682,66.1369284 C198.256139,66.3175703 198.702417,66.6883682 199,67.186577 L199,67.186577 C198.937108,67.1030823 197.110492,64.9501097 194.479947,67.2819996 C192.606846,68.9340035 186.938323,71.6952951 183.003443,71.9815629 Z" id="Path"></path>
                <path d="M201.384599,50.1165353 C200.392679,50.206876 199.460533,50.6343725 198.740755,51.3290428 C198.281389,51.758746 197.984363,52.3362631 197.900551,52.9626776 C197.91197,52.0763523 198.242457,51.2244768 198.830377,50.5659261 C194.160112,51.7387303 190.045823,54.5284071 187.204747,58.4486381 C188.265271,56.8055821 189.333265,55.1672367 190.408727,53.5336019 C188.612313,53.6128991 186.835116,53.9400257 185.126641,54.505869 C184.468653,54.7160623 183.890743,55.1255909 183.471438,55.6788075 C183.191259,56.0517358 183.019599,56.4960764 182.975717,56.9619739 C182.965579,56.3505949 183.112224,55.7469532 183.401421,55.2096321 C178.245365,57.6742161 176.357706,62.1115979 175.671539,64.3246361 C177.791655,62.9849425 180.15263,62.4564136 183.146559,61.8996211 L182.793673,62.0861607 C175.481092,64.2596299 170.997201,70.0169208 171,70 C172.68041,68.352196 173.307763,68.3041479 173.307763,68.3041479 C174.175975,67.7162655 175.133808,67.1029458 176.108445,66.4981053 C179.49543,67.5632067 183.099336,67.7171412 186.56339,66.9446698 C185.375901,66.5800696 185.031417,65.7830367 185.031417,65.7830367 C185.515935,66.4670153 186.599799,66.6026805 187.344781,66.6111596 C187.679159,66.6139126 188.011871,66.5633576 188.330621,66.4613626 C190.40713,65.8168968 192.354561,64.8074636 194.083221,63.4795551 C192.944277,63.2590992 191.8044,63.0414696 190.663589,62.8266664 C194.606949,62.3659701 197.598077,61.2665169 199.883433,59.8900806 C197.970568,59.695062 197.472046,58.5221235 197.472046,58.5221235 C197.730748,58.8544271 198.091181,59.0909555 198.497096,59.1947966 C199.662319,59.5394569 200.921058,59.2790497 201.857914,58.4995126 C206.325002,54.8563373 207.005567,50.2776376 207,50.2719849 C205.142998,49.9722431 203.255057,49.9199794 201.384599,50.1165353 Z" id="Path"></path>
                <path d="M29.9992911,71.98173 C30.9125987,72.0446971 31.6399635,71.9487472 32.1102896,71.6339116 C32.4329552,71.409029 32.7692931,70.9592639 32.5395989,70.0927163 C32.3946729,69.5499996 32.449362,69.1602032 32.7064006,68.8933425 C33.9040916,67.6939687 39.151509,69.0042846 41,69.7928728 L40.5160016,69.1751953 C40.2425562,69.0492611 33.906826,66.6834963 32.2852947,68.3206415 C31.9161434,68.6924474 31.823172,69.2381625 32.0118493,69.9337993 C32.2005266,70.6294361 31.9462224,70.8663124 31.7384039,71.0042404 C29.824286,72.3145563 21.8752279,69.6039715 18.5720073,67.1062755 C16.9614138,65.8679221 16.0344339,65.8829143 15.2605834,66.1377812 C14.742136,66.3200289 14.2968964,66.6928148 14,67.1932301 L14,67.1932301 C14.0628924,67.109274 15.8867733,64.9414058 18.5200527,67.2861816 C20.3931537,68.9263253 26.0644116,71.6968787 29.9992911,71.98173 Z" id="Path"></path>
                <path d="M10.6161962,50.1103422 C11.6074903,50.1977842 12.5394887,50.625019 13.2577793,51.3212631 C13.7169346,51.7501012 14.0138079,52.3274063 14.0972655,52.9537428 C14.0856899,52.0673867 13.7554619,51.2155842 13.1682341,50.5573644 C17.8401516,51.7256232 21.9580678,54.5152996 24.8035123,58.4396669 C23.7401632,56.7986994 22.6712175,55.1596181 21.5966752,53.5224229 C23.3914182,53.6009214 25.1670886,53.9274298 26.8742449,54.4928572 C27.532815,54.700982 28.1115038,55.1101516 28.5308309,55.6641684 C28.8112525,56.038278 28.9827916,56.4841201 29.0261277,56.9514791 C29.0361394,56.3382384 28.8886211,55.7328618 28.5979898,55.1945122 C32.3327759,56.9943121 35.1410943,60.3064275 36.3296573,64.3131988 C34.2113539,62.9749616 31.8523978,62.445891 28.8582305,61.8913572 L29.2108147,62.0780879 C36.5199409,64.2509553 41.002797,70 41,70 C39.3210264,68.3505447 38.69421,68.3024474 38.69421,68.3024474 C37.826741,67.7139625 36.8669285,67.1000143 35.8959228,66.4945539 C32.5136688,67.5643632 28.9135271,67.7213936 25.452715,66.9500639 C26.6363905,66.5850901 26.9833781,65.7872403 26.9833781,65.7872403 C26.4964761,66.4719199 25.4163372,66.6105533 24.6719928,66.6162119 C24.3370353,66.6213492 24.0034615,66.571667 23.6841975,66.4690906 C21.6043484,65.8292615 19.6528052,64.822577 17.9197258,63.4955444 C19.0595615,63.2729763 20.1993971,63.0541807 21.3392328,62.8391574 C17.3992444,62.3808182 14.4078754,61.2830675 12.1216747,59.9080499 C14.0329049,59.7100021 14.531,58.5358616 14.531,58.5358616 C14.2708003,58.8705576 13.9073126,59.1075968 13.498432,59.2092241 C12.3346433,59.5545019 11.0772705,59.2949474 10.1404874,58.5160568 C5.68001758,54.8719772 4.99443721,50.2885853 5,50.2829267 C6.8565199,49.9768227 8.7447503,49.9187975 10.6161962,50.1103422 L10.6161962,50.1103422 Z" id="Path"></path>
                <path d="M13.6113906,11.480362 C14.4771649,17.7615324 15.3429392,24.0436107 16.2087134,30.326597 C19.2589309,29.9071259 22.3118765,29.5094456 25.3675505,29.1335559 C25.0037798,26.1918109 24.6400091,23.2500659 24.2762384,20.3083209 C26.3279052,20.0577278 28.3813909,19.8143983 30.4366954,19.5783323 L32,33.2765135 C22.809333,34.3170196 13.6350357,35.5581818 4.47710802,37 C4.22428738,35.3874879 3.97146673,33.7749758 3.71864609,32.1624638 C5.18827976,31.9336614 6.65882286,31.7084908 8.13027539,31.4869519 C7.1899281,25.214861 6.24685253,18.9436781 5.30104868,12.673403 C3.78776253,12.8985736 2.27447637,13.1300999 0.761190212,13.3679817 L0,8.53316932 C5.87671583,7.61251208 11.7616165,6.76812231 17.654702,6 C17.8675079,7.61069619 18.0757666,9.23319568 18.2794782,10.8674985 C16.7261773,11.059983 15.1701481,11.2642709 13.6113906,11.480362 Z" id="Path"></path>
                <path d="M58.7375259,11.5032921 C58.6400794,10.0990255 58.5408283,8.69566617 58.4397726,7.29321394 C55.1536588,7.52907266 51.8702517,7.7894244 48.5895516,8.07426916 C48.7700081,10.2677552 48.9585852,12.4630556 49.1552829,14.6601703 C51.7773166,14.4315688 54.4011549,14.2192959 57.0267978,14.0233518 C57.14229,15.645334 57.2613913,17.2582448 57.3841018,18.8620841 C54.7783091,19.0580283 52.1725165,19.2684868 49.5667238,19.4934597 C49.7796625,22.004448 49.9935036,24.5109004 50.2082469,27.0128171 C53.4005233,26.7352296 56.5918975,26.4812279 59.7823694,26.250812 C59.6813137,24.8356597 59.5802581,23.4196003 59.4792024,22.0026337 C61.4642245,21.8574898 63.4492466,21.7232318 65.4342687,21.5998595 C65.6237481,24.6442513 65.8123252,27.6886431 66,30.7330349 C56.9771722,31.2990958 47.9660742,32.0547508 38.9667058,33 C38.7970766,31.3780177 38.6283497,29.7569426 38.4605251,28.1367746 C39.7020662,28.0061452 40.9436073,27.8791444 42.1851484,27.7557721 C41.5770098,21.4492728 40.9634575,15.1427735 40.3444916,8.83627425 L36.5115943,9.22816258 C36.350988,7.60799462 36.1804566,5.98782665 36,4.36765868 C45.3945683,3.37886636 54.8026708,2.5896468 64.2243075,2 C64.4137869,5.03169169 64.602364,8.06338337 64.7900388,11.0950751 C62.7725345,11.2220759 60.7550302,11.3581482 58.7375259,11.5032921 Z" id="Path"></path>
                <path d="M94.7108613,11.8855344 C94.6731395,9.61103908 94.6363158,7.3365438 94.6003902,5.06204853 C92.960389,5.08983145 91.3194896,5.12409706 89.6776921,5.16484534 C89.8285794,11.6308576 89.9785686,18.0968698 90.1276596,24.562882 C91.6598842,24.5276903 93.193905,24.4952769 94.7297222,24.4656418 L94.8105547,29.4665679 C89.0930038,29.5665864 83.3763511,29.7443971 77.6605965,30 L77.450432,24.9990739 C79.0113971,24.9305427 80.5723621,24.866642 82.1333271,24.8073717 C81.9069962,18.3450639 81.6797671,11.8809039 81.4516399,5.41489165 C79.8457679,5.47601408 78.2407941,5.54269309 76.6367184,5.61492869 C76.7301248,7.88757177 76.8253275,10.1602149 76.9223265,12.4328579 C75.1458082,12.5125023 73.3692899,12.5995555 71.5927715,12.6940174 C71.3933847,8.76180774 71.1957942,4.82774588 71,0.891831821 C80.629843,0.384330432 90.2632785,0.087053158 99.9003066,0 C99.9344359,3.93961845 99.967667,7.8792369 100,11.8188553 C98.2342593,11.8336729 96.4712131,11.8558992 94.7108613,11.8855344 Z" id="Path"></path>
                <path d="M132.171913,11.9341897 C132.252934,9.72605417 132.334854,7.51701883 132.417676,5.30708368 C130.773856,5.24769617 129.129136,5.19280772 127.483516,5.14241832 C127.303471,11.4266965 127.118023,17.709175 126.927175,23.9898539 C128.462966,24.0348444 129.999659,24.0852338 131.537251,24.1410221 L131.359005,29 C125.631744,28.7930435 119.900882,28.6589717 114.166418,28.5977846 C114.182622,26.9781253 114.199727,25.358466 114.217731,23.7388067 C115.782331,23.7550033 117.34693,23.7765987 118.911529,23.803593 C119.019557,17.5193149 119.128485,11.2359366 119.238313,4.95345807 C117.628702,4.92646374 116.018191,4.90396848 114.40678,4.88597226 L114.347364,11.5157777 C112.56491,11.4977815 110.782455,11.4869838 109,11.4833845 L109.029708,0 C118.696374,0.0215954575 128.353138,0.248347761 138,0.680256911 C137.819954,4.50265289 137.64801,8.32684849 137.484168,12.1528437 C135.717918,12.0718607 133.947166,11.9989761 132.171913,11.9341897 Z" id="Path"></path>
                <path d="M166.019964,11.7490736 C166.141561,10.3377448 166.264973,8.92823952 166.3902,7.52055761 C163.090744,7.22698665 159.789474,6.95803188 156.486388,6.71369331 C156.324864,8.92003412 156.162432,11.1327569 155.999093,13.3518617 C158.639746,13.5487912 161.279492,13.7603082 163.91833,13.9864126 C163.782214,15.6056114 163.644283,17.225722 163.504537,18.8467443 C160.885662,18.6188165 158.264973,18.4082113 155.642468,18.2149285 L155.098004,25.780307 C158.306715,26.0191753 161.516334,26.2808364 164.72686,26.5652903 L165.102541,22.2984824 C167.098911,22.4808247 169.095281,22.6631669 171.091652,22.8455091 L170.201452,32 C161.147005,31.1119934 152.079855,30.4136227 143,29.9048879 C143.090744,28.263808 143.181488,26.6227281 143.272232,24.9816481 C144.524501,25.0527616 145.77677,25.1266102 147.029038,25.2031939 L148.196915,6.1365802 C146.906534,6.05634963 145.617967,5.98067761 144.331216,5.90956414 C144.42196,4.26848421 144.512704,2.63196283 144.603448,1 C154.080762,1.53243927 163.546279,2.26180813 173,3.18810658 C172.69873,6.23686842 172.403811,9.28015999 172.115245,12.3179813 C170.078947,12.1192283 168.047187,11.9295924 166.019964,11.7490736 Z" id="Path"></path>
                <path d="M209.766611,15.6663357 C209.498007,17.4086395 208.821927,18.8059417 207.738372,19.8582423 C206.654817,20.9105429 205.147342,21.6770109 203.215947,22.1576465 C204.495017,25.279957 205.749419,28.4040881 206.979153,31.5300397 C208.320349,31.7357663 209.660631,31.9433135 211,32.1526812 C210.746013,33.7693644 210.489286,35.3851374 210.229817,37 C207.099751,36.5066203 203.966944,36.0350877 200.831395,35.5854022 C199.108306,31.0849057 197.340449,26.5907812 195.527824,22.1030288 C194.327326,21.9446375 193.127741,21.7889772 191.92907,21.6360477 L190.950581,29.3016385 C192.253405,29.4654916 193.556229,29.6338961 194.859053,29.806852 C194.639784,31.428997 194.422342,33.051142 194.206728,34.673287 C188.807226,33.9632572 183.404983,33.3133069 178,32.7234359 C178.182724,31.0958292 178.359967,29.4691327 178.531728,27.8433466 C179.959718,27.9962761 181.387708,28.1573982 182.818439,28.3185204 C183.549336,22.0028964 184.280233,15.6863621 185.01113,9.36891758 C183.549336,9.20324396 182.079319,9.04030122 180.60108,8.88008937 C180.783804,7.25248262 180.960133,5.62578616 181.130066,4 C187.286047,4.66451506 193.43289,5.41095664 199.570598,6.23932473 C203.133721,6.72269116 205.838953,7.7959285 207.650664,9.42626614 C209.462375,11.0566038 210.155814,13.1402681 209.766611,15.6663357 Z M201.053405,14.7269116 C201.203239,13.6345581 200.929153,12.7643165 200.231146,12.1161867 C199.526744,11.4662363 198.501661,11.0484111 197.153156,10.8709037 C195.892359,10.7015889 194.628821,10.5404667 193.368023,10.3793446 C193.081146,12.5968222 192.800664,14.8152102 192.526578,17.0345084 C193.537043,17.1619497 194.547508,17.2930321 195.557973,17.4277557 C198.901827,17.867428 200.732724,16.9826216 201.053405,14.7269116 Z" id="Shape"></path>
                <path d="M69.1875805,53.3049626 L68.9463207,49.2659196 C65.886666,49.4497213 62.8288601,49.6519032 59.7729028,49.8724653 C59.9355914,52.1130084 60.1010531,54.3526325 60.2692879,56.5913376 C62.4600376,56.4277541 64.6507874,56.2779557 66.8415371,56.1419424 L67.1576706,61.088047 C64.9835595,61.2222222 62.8094484,61.3701826 60.6353372,61.5319281 C60.8202106,64.0463358 61.005084,66.5616625 61.1899574,69.0779082 C62.7207091,68.9639511 64.2533096,68.8573461 65.7877587,68.7580932 C65.896834,70.4123088 66.0068337,72.0600913 66.1177577,73.7014408 C60.6436565,74.0690442 55.1760259,74.5018973 49.7148658,75 C49.5595722,73.3457844 49.4061272,71.7016779 49.254531,70.0676805 C50.6595688,69.9353433 52.065531,69.8094391 53.4724175,69.689968 C52.9177974,63.2973438 52.3631772,56.9028815 51.808557,50.5065813 C50.3573008,50.6315665 48.9078934,50.7602277 47.4603348,50.8925649 C47.3050411,49.2383493 47.1515962,47.5942429 47,45.9602455 C56.1697204,45.1110815 65.3514575,44.4576663 74.5452114,44 C74.6968076,46.9941302 74.8484038,49.9900984 75,52.9879047 C73.0643756,53.0853196 71.1269024,53.1910056 69.1875805,53.3049626 Z" id="Path"></path>
                <path d="M92.2949582,47.9318076 C92.4398712,54.2125779 92.5847841,60.4924489 92.7296971,66.7714206 C95.5881051,66.7066704 98.4483244,66.661705 101.310355,66.6365243 C101.283184,63.7011815 101.256919,60.7658387 101.231559,57.8304959 C103.151655,57.8143083 105.074469,57.8062145 107,57.8062145 L107,71.4604149 C98.4030391,71.4604149 89.8078897,71.6402766 81.2145517,72 L80.9998994,67.1491302 C82.3801952,67.0897758 83.7613968,67.0367166 85.1435041,66.9899526 C84.9207004,60.7127795 84.6988025,54.4356064 84.4778102,48.1584333 C83.0540405,48.206996 81.6275536,48.2609545 80.206501,48.3203089 C80.1358559,46.7015536 80.0670222,45.0872949 80,43.4775328 C85.5320519,43.2491084 91.0659153,43.0899308 96.60159,43 C96.6287612,44.6187552 96.6550267,46.2375105 96.6803864,47.8562657 C95.2221999,47.8760505 93.7603905,47.9012311 92.2949582,47.9318076 Z" id="Path"></path>
                <path d="M125.01821,48.0963136 L124.46719,66.9930005 C126.019466,67.0344999 127.569859,67.0814124 129.118367,67.1337378 L128.954474,72 C123.302983,71.8069373 117.651491,71.6887541 112,71.6454503 L112.042386,66.7737751 C113.560754,66.7882097 115.078179,66.8053508 116.594662,66.8251983 C116.700157,60.528107 116.802826,54.2283092 116.902669,47.9258049 C115.340973,47.9023487 113.776452,47.8843055 112.209105,47.8716752 C112.222292,46.2477835 112.237363,44.6238917 112.254317,43 C118.167661,43.0487168 124.082889,43.172313 130,43.3707886 L129.821978,48.2424638 C128.216954,48.1883341 126.615699,48.1396174 125.01821,48.0963136 Z" id="Path"></path>
                <path d="M147.112841,49.2522015 C148.51738,51.1521663 149.908982,53.0548609 151.287648,54.9602853 C152.76611,53.2477692 154.25104,51.5416226 155.742438,49.8418457 L153.009132,49.6425678 L153.341786,45.0755548 C157.895448,45.3976752 162.448186,45.7616532 167,46.1674886 C166.844762,47.8053892 166.690447,49.4332805 166.537057,51.0511624 C165.128822,50.9219502 163.720587,50.7981977 162.312352,50.6799049 C159.617856,53.6117471 156.957549,56.5599683 154.331431,59.5245685 C156.720995,62.9150229 159.068977,66.3191265 161.375377,69.7368792 C162.781764,69.8606317 164.187227,69.987114 165.591765,70.1163262 C165.436527,71.7433075 165.280364,73.3711988 165.123278,75 C159.948662,74.5177292 154.762957,74.1009745 149.566164,73.7497358 C149.677049,72.1937302 149.786085,70.6386345 149.893274,69.0844487 L152.859437,69.2919162 C151.456747,67.1990431 150.039272,65.10617 148.607012,63.0132969 C146.982552,64.9150816 145.375649,66.8150464 143.786302,68.7131913 C144.800897,68.7705178 145.815491,68.833304 146.83563,68.8960902 C146.735834,70.4520958 146.635113,72.0081014 146.533469,73.5641071 C142.024161,73.2783844 137.513004,73.0417988 133,72.8543501 C133.072075,71.2164495 133.142302,69.5785488 133.210681,67.9406481 C134.661421,68.0007045 136.110314,68.0653106 137.557358,68.1344664 C140.126186,64.9478396 142.733823,61.775772 145.380269,58.6182635 C143.120071,55.4425561 140.825683,52.2713984 138.497106,49.1047904 C137.085175,49.0374545 135.673244,48.9737584 134.261313,48.913702 C134.333388,47.2758013 134.404539,45.6379007 134.474766,44 C139.758418,44.2220265 145.038375,44.5068393 150.314635,44.8544382 C150.211143,46.3776858 150.10765,47.9009334 150.004158,49.424181 L147.112841,49.2522015 Z" id="Path"></path>
            </g>
        </g>
    </g>
</svg>