<?xml version="1.0" encoding="UTF-8"?>
<svg width="36px" height="34px" viewBox="0 0 36 34" version="1.1" xmlns="http://www.w3.org/2000/svg" xmlns:xlink="http://www.w3.org/1999/xlink">
    <title>write-icon</title>
    <g id="playground-v5" stroke="none" stroke-width="1" fill="none" fill-rule="evenodd">
        <g id="main" transform="translate(-376.000000, -723.000000)" fill="#FFFFFF" fill-rule="nonzero">
            <g id="bg-sepia" transform="translate(0.000000, 624.000000)">
                <g id="Section-2" transform="translate(250.000000, 80.000000)">
                    <g id="Group-14" transform="translate(108.000000, 0.000000)">
                        <g id="write-icon" transform="translate(18.000000, 19.000000)">
                            <path d="M20.613,30.9995 C20.6133986,30.6186597 20.4622868,30.253303 20.1929919,29.9840081 C19.923697,29.7147132 19.5583403,29.5636014 19.1775,29.564 L4.8825,29.564 C4.05407288,29.564 3.3825,28.8924271 3.3825,28.064 L3.3825,4.5005 C3.3825,3.67207288 4.05407288,3.0005 4.8825,3.0005 L21.9825,3.0005 C22.8109271,3.0005 23.4825,3.67207288 23.4825,4.5005 L23.4825,10.1795 C23.4825,10.9723048 24.1251952,11.615 24.918,11.615 C25.7108048,11.615 26.3535004,10.9723048 26.3535004,10.1795 L26.3535004,3.0005 C26.354329,1.41547569 25.0705237,0.129656026 23.4855,0.128 L3.3825,0.128 C2.62080349,0.128 1.890326,0.430685283 1.35186592,0.969426692 C0.813405835,1.5081681 0.511102039,2.2388036 0.511499608,3.0005 L0.511499608,29.564 C0.511499608,31.1496095 1.79689048,32.4350008 3.3825,32.4350008 L19.1775,32.4350008 C19.5583403,32.4353986 19.923697,32.2842868 20.1929919,32.0149919 C20.4622868,31.745697 20.6133986,31.3803403 20.613,30.9995 Z" id="Path"></path>
                            <path d="M12,6.95 C11.42123,6.97161079 10.9631863,7.44707671 10.9631863,8.02625 C10.9631863,8.60542329 11.42123,9.08088921 12,9.1025 L19.179,9.1025 C19.7738107,9.1025 20.256,8.62031068 20.256,8.0255 C20.256,7.43068932 19.7738107,6.9485 19.179,6.9485 L12,6.95 Z" id="Path"></path>
                            <path d="M7.332,6.59 C6.53919524,6.59 5.8965,7.23269524 5.8965,8.0255 C5.8965,8.81830476 6.53919524,9.461 7.332,9.461 C8.12480476,9.461 8.7675,8.81830476 8.7675,8.0255 C8.76667323,7.23303796 8.12446204,6.59082677 7.332,6.59 L7.332,6.59 Z" id="Path"></path>
                            <path d="M11.2725,23.258 C11.2046622,23.1469295 11.0838985,23.079181 10.95375,23.079181 C10.8236015,23.079181 10.7028378,23.1469295 10.635,23.258 L8.805,26.1905 C8.73042413,26.3113275 8.73016717,26.4638342 8.80433546,26.5849123 C8.87850374,26.7059905 9.01448119,26.7750446 9.156,26.7635 L12.606,26.4635 C12.7356609,26.4531141 12.8505796,26.3760185 12.9093629,26.2599827 C12.9681462,26.1439468 12.9623265,26.0056855 12.894,25.895 L11.2725,23.258 Z" id="Path"></path>
                            <path d="M15.45,14.8835 C14.7379146,15.3936883 14.2645071,16.1720481 14.139,17.039 L13.929,18.5105 C13.9081707,18.6544096 13.9724132,18.7973884 14.0938439,18.8773785 C14.2152747,18.9573686 14.3720017,18.9599491 14.496,18.884 L22.2255,14.15 C22.3399453,14.0793199 22.4079893,13.9529526 22.404,13.8185 C22.4000025,13.68381 22.323765,13.5617155 22.2045,13.499 C21.708,13.2335 21.021,12.8735 20.6925,12.7085 C19.8968126,12.3099893 18.9459389,12.3844657 18.222,12.902 L15.45,14.8835 Z" id="Path"></path>
                            <path d="M15.7125,24.872 C15.8598552,24.7820231 15.9267328,24.6030634 15.8745,24.4385 C15.7739711,24.122278 15.7233632,23.7923149 15.7245,23.4605 C15.7269804,21.6773393 17.1723384,20.2326524 18.9555,20.231 L23.1825,20.231 C23.2518296,20.230723 23.3197696,20.2115339 23.379,20.1755 L27.9735,17.36 C28.6379134,16.9618997 29.0374294,16.237727 29.019841,15.4633758 C29.0022527,14.6890247 28.5702684,13.9837384 27.8884649,13.6162157 C27.2066613,13.2486929 26.3800302,13.275529 25.7235,13.6865 L12.5745,21.743 C12.4895954,21.7945682 12.4287315,21.8778348 12.4053677,21.9743864 C12.3820039,22.0709379 12.3980653,22.1728191 12.45,22.2575 L14.3085,25.292 C14.360321,25.3770697 14.4439763,25.4379152 14.540872,25.4610124 C14.6377678,25.4841097 14.7398755,25.4675449 14.8245,25.415 L15.7125,24.872 Z" id="Path"></path>
                            <path d="M21.9345,25.25 C22.0859478,25.2503015 22.2224726,25.341318 22.281,25.481 L25.677,33.635 C25.7355274,33.774682 25.8720522,33.8656985 26.0235,33.866 L35.1135,33.866 C35.2530073,33.8653006 35.3808829,33.7881145 35.4465,33.665 C35.5108224,33.5422172 35.5021697,33.3939662 35.424,33.2795 L26.7015,20.5295 C26.5851454,20.3604622 26.3545307,20.3163446 26.184,20.4305 L24.432,21.5975 C24.3706129,21.6382217 24.2986647,21.660119 24.225,21.6605 L18.954,21.6605 C18.2800276,21.6089116 17.6339662,21.9392609 17.2811987,22.5158502 C16.9284311,23.0924394 16.9284311,23.8180606 17.2811987,24.3946498 C17.6339662,24.9712391 18.2800276,25.3015884 18.954,25.25 L21.9345,25.25 Z" id="Path"></path>
                        </g>
                    </g>
                </g>
            </g>
        </g>
    </g>
</svg>